<?xml version="1.0" encoding="utf-8"?>
<!-- Generator: Adobe Illustrator 24.1.1, SVG Export Plug-In . SVG Version: 6.00 Build 0)  -->
<svg version="1.1" xmlns="http://www.w3.org/2000/svg" xmlns:xlink="http://www.w3.org/1999/xlink" x="0px" y="0px"
	 viewBox="0 0 50 50" style="enable-background:new 0 0 50 50;" xml:space="preserve">
<style type="text/css">
	.st0{display:none;}
	.st1{display:inline;}
	.st2{fill:#222222;}
	.st3{fill:#417188;}
	.st4{fill:#DB4B7B;}
	.st5{fill:#72D5CD;}
	.st6{fill:#F68697;}
	.st7{fill:#FCF6ED;}
	.st8{fill:#DB4A7B;}
</style>
<g id="Calque_1" class="st0">
	<g class="st1">
		<path class="st2" d="M27.31,5c0.74,0,1.48,0.01,2.22-0.01c0.23-0.01,0.27,0.08,0.27,0.29c-0.01,1.43,0,2.85,0,4.28
			c0,0.43,0,0.43,0.44,0.43c2.23,0,4.47,0.01,6.7-0.01c0.29,0,0.35,0.08,0.34,0.35c-0.01,1.46,0,2.92-0.01,4.38
			c0,0.22,0.06,0.27,0.28,0.27c1.47-0.01,2.94,0,4.41-0.01c0.25,0,0.31,0.06,0.31,0.31c-0.01,3.12-0.01,6.24-0.01,9.36
			c0,1.01,0.01,2.02,0,3.03c-0.01,1.57-0.04,3.14-0.07,4.7c0,0.03-0.14,0.1-0.21,0.1c-1.45,0.01-2.9,0.01-4.34,0
			c-0.31,0-0.38,0.08-0.38,0.38c0.01,3.92,0,7.84,0.01,11.75c0,0.27-0.05,0.37-0.34,0.36c-0.72-0.02-1.44-0.01-2.15-0.01
			c0-0.83,0-1.65,0.01-2.48c0-1.67,0-3.33-0.01-5c0-0.83,0-1.65,0-2.48c0-0.83,0-1.67,0-2.5c0-0.83,0.01-1.65,0.01-2.48
			c1.56,0,3.12-0.01,4.68-0.01c0.24,0,0.32-0.03,0.31-0.3c-0.01-3.98-0.01-7.96,0-11.95c0-0.26-0.08-0.3-0.31-0.3
			c-1.56,0.01-3.12,0-4.68-0.01c0-0.83-0.01-1.65-0.01-2.48c0-0.75,0-1.5,0.01-2.25c0.01-0.22-0.07-0.25-0.26-0.25
			c-1.58,0.01-3.16,0.01-4.74,0.01c-1.56,0-3.12,0-4.68-0.01c-0.1,0-0.21-0.06-0.31-0.1c0-0.77,0-1.54,0-2.31
			c0.12-0.02,0.23-0.06,0.35-0.06c0.62-0.01,1.24-0.02,1.85,0c0.26,0.01,0.31-0.08,0.31-0.32C27.32,8.11,27.32,6.55,27.31,5L27.31,5
			z"/>
		<path class="st2" d="M17.22,47.45c0.02,0.1,0.06,0.19,0.06,0.29c0.01,0.66-0.01,1.33,0.01,1.99C17.29,49.95,17.21,50,17,50
			c-1.46-0.01-2.92-0.01-4.38,0c-0.27,0-0.33-0.08-0.33-0.34c0.01-3.91,0.01-7.82,0.01-11.72c0-4.56,0-9.12,0-13.68
			c0-4.64,0.01-9.27,0-13.91c0-0.32,0.1-0.38,0.39-0.37c0.59,0.02,1.19,0,1.78,0.01c0.24,0.01,0.35-0.03,0.34-0.32
			c-0.02-0.73-0.01-1.46-0.01-2.19c0,0-0.01,0-0.01,0c0.77,0,1.55,0.01,2.32,0c0.15,0,0.17,0,0.17,0.16
			c-0.02,0.68,0.01,1.37-0.01,2.05c-0.01,0.25,0.08,0.29,0.3,0.29c0.64-0.01,1.28,0,1.92-0.01c0.22,0,0.29,0.05,0.29,0.28
			c-0.02,0.75-0.01,1.5-0.01,2.25c-1.55,0-3.1,0.02-4.65,0.01c-0.29,0-0.35,0.08-0.35,0.35c0.01,3.33,0.01,6.65,0.01,9.98
			c0,1.7,0,3.4,0,5.1c0,2.35,0,4.69,0,7.04c0,0.82,0,1.64,0,2.47c0,1.67,0,3.35,0,5.02c0,0.81-0.01,1.62-0.01,2.42
			c0,0.77,0,1.55,0.01,2.32c0,0.1,0.12,0.27,0.19,0.27C15.72,47.5,16.47,47.47,17.22,47.45z"/>
		<path class="st3" d="M17.22,47.45c-0.75,0.02-1.5,0.05-2.24,0.05c-0.06,0-0.18-0.17-0.19-0.27c-0.02-0.77-0.01-1.55-0.01-2.32
			c0-0.81,0.01-1.62,0.01-2.42c1.88-0.01,3.77-0.03,5.65-0.03c3.96,0,7.91,0.01,11.87,0.01c0.83,0,1.67,0,2.5,0
			c0,0.83,0,1.65-0.01,2.48c0,0.04-0.01,0.09-0.01,0.13c-0.06-0.02-0.12-0.06-0.19-0.06c-0.69,0-1.38,0-2.08-0.01
			c-0.23,0-0.21,0.14-0.21,0.29c0,0.71-0.01,1.43-0.01,2.14c-0.01,0.02-0.01,0.05-0.02,0.07c-0.73,0-1.46,0.01-2.19-0.01
			c-0.24,0-0.31,0.08-0.3,0.31c0.01,0.58,0.01,1.17,0,1.75c0,0.08-0.01,0.15-0.02,0.23c-0.01-0.08-0.03-0.16-0.03-0.25
			c0-0.56-0.01-1.12,0-1.68c0.01-0.27-0.05-0.38-0.35-0.37c-0.69,0.02-1.39,0.01-2.09,0.01c0.02-0.04,0.05-0.08,0.07-0.12
			c0.62,0.02,1.25,0.05,1.87,0.07c0.39,0.02,0.48-0.05,0.48-0.45c0-0.68-0.03-1.36-0.03-2.04c0-0.72,0.01-1.43,0.04-2.15
			c0.01-0.24-0.08-0.31-0.31-0.3c-0.62,0.01-1.23,0.01-1.85,0c-0.22,0-0.29,0.07-0.29,0.29c0.01,0.72,0,1.44,0,2.15
			c-0.02,0-0.04,0-0.05-0.01c0-0.72,0-1.44,0.01-2.15c0-0.2-0.05-0.28-0.27-0.28c-0.64,0.01-1.28,0.01-1.92,0
			c-0.21,0-0.27,0.08-0.27,0.28c0.01,0.72,0,1.44,0.01,2.15l-0.03,0.01c0,0-0.03-0.01-0.03-0.01c0-0.72,0-1.44,0.01-2.15
			c0-0.2-0.05-0.28-0.27-0.28c-0.64,0.01-1.28,0.01-1.92,0c-0.21,0-0.27,0.08-0.27,0.28c0.01,0.72,0.01,1.44,0.01,2.15l-0.03,0.01
			c0,0-0.03-0.01-0.03-0.01c0-0.72,0-1.44,0.01-2.15c0-0.2-0.05-0.28-0.27-0.28c-0.64,0.01-1.28,0.01-1.92,0
			c-0.21,0-0.27,0.08-0.27,0.28c0.01,0.72,0.01,1.44,0.01,2.15c-0.02,0.03-0.05,0.05-0.07,0.08c-0.71,0-1.43,0-2.14-0.01
			c-0.22,0-0.29,0.07-0.29,0.29c0.01,0.71,0.01,1.43,0.01,2.14C17.3,47.44,17.26,47.44,17.22,47.45z"/>
		<path class="st2" d="M9.81,2.45c0-0.72,0-1.44-0.02-2.15C9.79,0.05,9.86,0,10.1,0c3.19,0.01,6.38,0.01,9.56,0.01
			c1.62,0,3.23,0.01,4.85-0.01c0.25,0,0.32,0.06,0.31,0.31c-0.02,0.71-0.01,1.41-0.02,2.12c-2.47,0-4.94,0-7.4,0.01
			c-1.67,0-3.34,0.01-5.01,0.01c-0.06,0-0.12,0-0.18,0c-0.74,0-1.48,0-2.23,0C9.92,2.45,9.87,2.45,9.81,2.45z"/>
		<path class="st4" d="M12.2,2.46c0.06,0,0.12,0,0.18,0c0.11,0.01,0.22,0.04,0.32,0.04c0.69,0.01,1.38,0.01,2.08,0.01
			c0,0.83-0.01,1.66-0.01,2.5c-1.56,0-3.11,0-4.67-0.01c-0.23,0-0.31,0.06-0.31,0.3c0.02,0.6,0.01,1.21,0,1.81
			c0,0.13-0.05,0.26-0.07,0.38c0,0,0.01-0.01,0.01-0.01c-0.71,0-1.43,0-2.14,0.01c-0.24,0-0.31-0.1-0.31-0.32
			C7.3,6.47,7.29,5.77,7.3,5.07c0.01-0.03,0.02-0.05,0.03-0.08c0.71,0,1.41-0.02,2.12-0.01c0.26,0,0.36-0.06,0.35-0.34
			c-0.02-0.71,0-1.41,0-2.12C9.8,2.5,9.81,2.47,9.81,2.45c0.05,0,0.11,0.01,0.16,0.01C10.72,2.46,11.46,2.46,12.2,2.46z"/>
		<path class="st2" d="M9.73,7.49C9.76,7.36,9.8,7.23,9.8,7.11c0.01-0.6,0.01-1.21,0-1.81c-0.01-0.24,0.07-0.3,0.31-0.3
			C11.66,5,13.22,5,14.77,5c0,0,0.01,0.01,0.01,0.01c0,0.83,0.01,1.65,0.01,2.48c0,0,0.01,0,0.01,0C13.11,7.48,11.42,7.49,9.73,7.49
			z"/>
		<path class="st2" d="M7.3,5.07c0,0.7,0,1.41-0.01,2.11C7.28,7.4,7.36,7.5,7.6,7.5c0.71-0.01,1.43-0.01,2.14-0.01
			c0.02,0.27,0.05,0.55,0.05,0.82C9.8,8.78,9.78,9.25,9.8,9.72c0.01,0.22-0.07,0.26-0.27,0.26c-0.66-0.01-1.32-0.01-1.98,0
			c-0.19,0-0.25-0.06-0.24-0.25c0.01-0.67,0-1.35,0.01-2.02c0-0.19-0.06-0.24-0.24-0.24C6.41,7.48,5.75,7.47,5.09,7.48
			C4.86,7.49,4.81,7.42,4.81,7.2c0.01-0.66,0-1.32,0.01-1.98c0-0.08,0.09-0.21,0.14-0.21C5.7,4.99,6.43,4.99,7.15,5
			C7.2,5,7.25,5.04,7.3,5.07z"/>
		<path class="st2" d="M27.33,47.5c0.7,0,1.39,0.01,2.09-0.01c0.29-0.01,0.36,0.1,0.35,0.37c-0.02,0.56-0.01,1.12,0,1.68
			c0,0.08,0.02,0.16,0.03,0.25c0.01-0.08,0.02-0.15,0.02-0.23c0-0.58,0.01-1.17,0-1.75c-0.01-0.23,0.06-0.32,0.3-0.31
			c0.73,0.01,1.46,0.01,2.19,0.01c0,0.75,0,1.5,0.01,2.25c0,0.17-0.04,0.23-0.22,0.23c-1.51-0.01-3.03-0.01-4.54,0
			c-0.19,0-0.22-0.07-0.22-0.24C27.32,49.01,27.32,48.26,27.33,47.5z"/>
		<path class="st2" d="M27.31,44.95c0-0.72,0.01-1.44,0-2.15c0-0.22,0.07-0.29,0.29-0.29c0.62,0.01,1.23,0.01,1.85,0
			c0.23,0,0.32,0.06,0.31,0.3c-0.03,0.72-0.04,1.43-0.04,2.15c0,0.68,0.03,1.36,0.03,2.04c0,0.4-0.09,0.47-0.48,0.45
			c-0.62-0.03-1.25-0.05-1.87-0.07c-0.03-0.13-0.07-0.25-0.07-0.38C27.31,46.32,27.31,45.63,27.31,44.95z"/>
		<path class="st2" d="M24.82,2.5c0.74,0,1.48,0.01,2.22-0.01c0.23,0,0.28,0.07,0.27,0.29c-0.01,0.74,0,1.48,0,2.22
			c0,0,0.01-0.01,0.01-0.01c-0.74,0-1.48-0.02-2.21-0.01c-0.22,0-0.29-0.05-0.28-0.28c0.01-0.72,0-1.43,0-2.15
			C24.83,2.54,24.83,2.52,24.82,2.5z"/>
		<path class="st2" d="M9.8,2.53c0,0.71-0.02,1.41,0,2.12C9.8,4.92,9.71,4.99,9.45,4.98c-0.71-0.01-1.41,0-2.12,0.01
			C7.32,4.22,7.31,3.45,7.32,2.67c0-0.06,0.1-0.17,0.16-0.17C8.25,2.51,9.02,2.52,9.8,2.53z"/>
		<path class="st2" d="M32.3,47.44c0-0.71,0.01-1.43,0.01-2.14c0-0.15-0.02-0.29,0.21-0.29c0.69,0.01,1.38,0,2.08,0.01
			c0.06,0,0.12,0.04,0.19,0.06c0,0.71,0,1.41,0.01,2.12c0,0.18-0.04,0.25-0.24,0.25C33.81,47.43,33.05,47.44,32.3,47.44z"/>
		<path class="st2" d="M19.84,44.94c0-0.72,0-1.44-0.01-2.15c0-0.2,0.06-0.28,0.27-0.28c0.64,0.01,1.28,0.01,1.92,0
			c0.21,0,0.27,0.08,0.27,0.28c-0.01,0.72,0,1.44-0.01,2.15C21.46,44.94,20.65,44.94,19.84,44.94z"/>
		<path class="st2" d="M22.33,44.94c0-0.72,0-1.44-0.01-2.15c0-0.2,0.05-0.28,0.27-0.28c0.64,0.01,1.28,0.01,1.92,0
			c0.21,0,0.27,0.08,0.27,0.28c-0.01,0.72,0,1.44-0.01,2.15C23.95,44.94,23.14,44.94,22.33,44.94z"/>
		<path class="st2" d="M24.82,44.94c0-0.72,0-1.44-0.01-2.15c0-0.2,0.05-0.28,0.27-0.28c0.64,0.01,1.28,0.01,1.92,0
			c0.21,0,0.27,0.08,0.27,0.28c-0.01,0.72-0.01,1.44-0.01,2.15C26.44,44.94,25.63,44.94,24.82,44.94z"/>
		<path class="st2" d="M17.34,47.43c0-0.71,0-1.43-0.01-2.14c0-0.22,0.07-0.29,0.29-0.29c0.71,0.01,1.43,0.01,2.14,0.01
			c0,0.74,0,1.48,0.01,2.22c0,0.16-0.04,0.21-0.21,0.21C18.83,47.44,18.09,47.44,17.34,47.43z"/>
		<path class="st3" d="M24.82,2.5c0.01,0.02,0.01,0.04,0,0.05c-0.89-0.02-1.78-0.05-2.68-0.06c-2.45-0.01-4.9,0-7.36,0.01
			c-0.69,0-1.38-0.01-2.08-0.01c-0.11,0-0.22-0.02-0.32-0.04c1.67,0,3.34-0.01,5.01-0.01c2.47,0,4.94,0,7.4-0.01
			C24.81,2.46,24.81,2.48,24.82,2.5z"/>
		<path class="st5" d="M14.78,34.99c0-2.35,0-4.69,0-7.04c0-1.7,0-3.4,0-5.1c0-3.33,0-6.65-0.01-9.98c0-0.28,0.06-0.35,0.35-0.35
			c1.55,0.01,3.1,0,4.65-0.01c0.14-0.01,0.28-0.04,0.43-0.04c1.4,0,2.79,0,4.19-0.01c0.15,0,0.29-0.07,0.44-0.11
			c0.1,0.03,0.21,0.1,0.31,0.1c1.56,0.01,3.12,0.01,4.68,0.01c0,0.83,0,1.67,0,2.5c-2.54,0-5.07,0-7.61,0
			c-0.62,0-1.24,0.02-1.85-0.01c-0.56-0.02-0.56-0.04-0.56,0.5c0,5.52,0,11.04,0,16.57c0,0.44,0,0.44,0.43,0.44
			c4.03,0,8.06,0,12.09,0c0,0.83,0.01,1.66,0.01,2.5c0,0-0.02,0.02-0.02,0.02c-1.71,0-3.41-0.01-5.12-0.01
			C23.04,34.99,18.91,34.99,14.78,34.99z"/>
		<path class="st3" d="M32.3,32.48c-4.03,0-8.06,0-12.09,0c-0.43,0-0.43,0-0.43-0.44c0-5.52,0-11.04,0-16.57c0-0.54,0-0.52,0.56-0.5
			c0.62,0.02,1.23,0.01,1.85,0.01c2.54,0,5.07,0,7.61,0c1.66,0,3.33,0,4.99-0.01c0,0.83,0.01,1.65,0.01,2.48
			c0,0-0.01,0.02-0.01,0.02c-0.04,0-0.09-0.01-0.13-0.01c-4.04,0-8.08,0-12.12-0.01c-0.3,0-0.28,0.15-0.28,0.35
			c0,3.95,0,7.9-0.01,11.86c0,0.28,0.08,0.35,0.35,0.35c2.4-0.01,4.8,0,7.21,0c1.66,0,3.32-0.01,4.98-0.02l0.01,0.02
			c0,0.83-0.01,1.65-0.01,2.48C33.96,32.48,33.13,32.48,32.3,32.48z"/>
		<path class="st6" d="M14.78,2.51c2.45,0,4.9-0.01,7.36-0.01c0.89,0,1.78,0.04,2.68,0.06c0,0.72,0.02,1.43,0,2.15
			c0,0.23,0.07,0.28,0.28,0.28c0.74-0.01,1.48,0,2.21,0.01c0,1.56,0,3.12,0.01,4.68c0,0.24-0.04,0.33-0.31,0.32
			c-0.62-0.02-1.23-0.01-1.85,0c-0.12,0-0.23,0.04-0.35,0.06c-0.11-0.02-0.22-0.06-0.32-0.06c-0.67-0.01-1.35-0.01-2.02,0.01
			c-0.19,0.01-0.22-0.04-0.22-0.21c0.01-0.61,0-1.21,0-1.82c0-0.48,0-0.48-0.46-0.48c-0.62,0-1.23,0-1.85,0
			c-0.15,0-0.2-0.01-0.19-0.19c0.02-0.67,0.01-1.35,0.01-2.02c0-0.18-0.03-0.29-0.25-0.29C17.94,5,16.36,5,14.78,5.01
			c0,0-0.01-0.01-0.01-0.01C14.78,4.17,14.78,3.34,14.78,2.51z"/>
		<path class="st7" d="M34.8,17.44c1.56,0,3.12,0.01,4.68,0.01c0.24,0,0.32,0.04,0.31,0.3c-0.01,3.98-0.01,7.96,0,11.95
			c0,0.27-0.08,0.3-0.31,0.3c-1.56-0.01-3.12,0-4.68,0.01c0,0-0.01-0.02-0.01-0.02c0-0.84,0-1.67,0-2.51
			c0.75,0.01,1.5,0.01,2.26,0.02c0.18,0,0.23-0.06,0.23-0.23c0-2.36,0-4.72,0-7.07c0-0.17-0.05-0.24-0.23-0.23
			c-0.75,0.01-1.5,0.01-2.26,0.02c0-0.84,0-1.67,0-2.51L34.8,17.44z"/>
		<path class="st4" d="M14.78,5.01c1.58,0,3.16,0,4.74-0.02c0.23,0,0.25,0.1,0.25,0.29c-0.01,0.67,0.01,1.35-0.01,2.02
			c-0.01,0.18,0.05,0.2,0.19,0.19c0.62-0.01,1.23,0,1.85,0c0.46,0,0.46,0,0.46,0.48c0,0.61,0,1.21,0,1.82
			c0,0.17,0.03,0.21,0.22,0.21c0.67-0.02,1.35-0.01,2.02-0.01c0.11,0,0.22,0.04,0.32,0.06c0,0.77,0,1.54,0,2.31
			c-0.15,0.04-0.29,0.11-0.44,0.11c-1.4,0.01-2.79,0-4.19,0.01c-0.14,0-0.28,0.03-0.43,0.04c0-0.75-0.01-1.5,0.01-2.25
			c0-0.23-0.07-0.28-0.29-0.28c-0.64,0.01-1.28,0-1.92,0.01c-0.22,0-0.31-0.04-0.3-0.29c0.02-0.68,0-1.37,0.01-2.05
			c0-0.16-0.02-0.16-0.17-0.16c-0.77,0.01-1.55,0-2.32,0C14.78,6.66,14.78,5.83,14.78,5.01z"/>
		<path class="st7" d="M34.79,14.96c-1.66,0-3.33,0-4.99,0.01c0-0.83,0-1.67,0-2.5c1.58,0,3.16,0,4.74-0.01
			c0.19,0,0.27,0.03,0.26,0.25C34.79,13.46,34.8,14.21,34.79,14.96z"/>
		<path class="st7" d="M34.8,42.46c-0.83,0-1.67,0-2.5,0c0-1.66,0-3.33,0.01-4.99c0.83,0,1.66,0,2.49-0.01
			C34.8,39.13,34.8,40.8,34.8,42.46z"/>
		<path class="st7" d="M32.3,32.48c0.83,0,1.66,0,2.49,0.01c0,0.83,0,1.67,0,2.5c-0.83,0-1.66-0.01-2.49-0.01
			C32.3,34.14,32.3,33.31,32.3,32.48z"/>
		<path class="st5" d="M32.31,34.98c0.83,0,1.66,0.01,2.49,0.01c0,0.83,0,1.65,0,2.48c-0.83,0-1.66,0-2.49,0.01
			c-0.01-0.01-0.02-0.02-0.03-0.03c0-0.82,0-1.63,0-2.45L32.31,34.98z"/>
		<path class="st5" d="M32.3,37.47c0,1.66,0,3.33-0.01,4.99c-3.96,0-7.91-0.01-11.87-0.01c-1.88,0-3.77,0.02-5.65,0.03
			c0-1.67,0-3.35,0-5.02c0.13,0,0.27,0.01,0.4,0.01c4.16,0,8.32,0,12.49,0c1.54,0,3.07-0.01,4.61-0.02
			C32.29,37.45,32.3,37.46,32.3,37.47z"/>
		<path class="st3" d="M32.28,37.45c-1.54,0.01-3.07,0.02-4.61,0.02c-4.16,0-8.32,0-12.49,0c-0.13,0-0.27,0-0.4-0.01
			c0-0.82,0-1.64,0-2.47c4.13,0,8.26-0.01,12.39-0.01c1.71,0,3.41,0.01,5.12,0.01C32.28,35.81,32.28,36.63,32.28,37.45z"/>
		<path class="st3" d="M12.2,2.46c-0.74,0-1.48,0-2.23,0C10.72,2.46,11.46,2.46,12.2,2.46z"/>
		<path class="st5" d="M34.8,27.47c0,0.84,0,1.67,0,2.51C33.14,29.99,31.48,30,29.82,30c-2.4,0-4.8-0.01-7.21,0
			c-0.28,0-0.35-0.07-0.35-0.35c0.01-3.95,0.01-7.9,0.01-11.86c0-0.2-0.02-0.35,0.28-0.35c4.04,0.01,8.08,0.01,12.12,0.01
			c0.04,0,0.09,0.01,0.13,0.01c0,0.84,0,1.67,0,2.51C34.8,22.47,34.8,24.97,34.8,27.47z M24.83,23.71c0,1.17,0,2.34,0,3.5
			c0,0.19,0.03,0.29,0.25,0.28c0.66-0.01,1.32-0.01,1.99,0c0.2,0,0.24-0.08,0.24-0.26c0-2.34,0-4.67,0-7.01
			c0-0.21-0.07-0.27-0.27-0.27c-0.62,0.01-1.24,0.02-1.85,0c-0.27-0.01-0.37,0.06-0.36,0.35C24.84,21.44,24.83,22.57,24.83,23.71z
			 M29.82,23.72c0,1.16,0.01,2.31,0,3.47c0,0.23,0.05,0.32,0.3,0.31c0.61-0.02,1.21-0.01,1.82,0c0.23,0,0.31-0.08,0.31-0.31
			c0.01-0.83,0.05-1.67,0.05-2.5c0.01-1.48,0-2.96,0.01-4.45c0-0.23-0.08-0.29-0.29-0.28c-0.62,0.01-1.24,0.02-1.85,0
			c-0.26-0.01-0.35,0.06-0.34,0.33C29.82,21.43,29.82,22.58,29.82,23.72z"/>
		<path class="st3" d="M34.8,27.47c0-2.5,0-5,0-7.5c0.75,0,1.5,0,2.26-0.02c0.18,0,0.23,0.06,0.23,0.23c0,2.36,0,4.72,0,7.07
			c0,0.18-0.05,0.23-0.23,0.23C36.31,27.48,35.55,27.48,34.8,27.47z"/>
		<path class="st3" d="M24.83,23.71c0-1.13,0.01-2.27-0.01-3.4c0-0.29,0.09-0.36,0.36-0.35c0.62,0.02,1.23,0.01,1.85,0
			c0.2,0,0.28,0.06,0.27,0.27c-0.01,2.34,0,4.67,0,7.01c0,0.18-0.04,0.27-0.24,0.26c-0.66-0.01-1.32-0.01-1.99,0
			c-0.22,0-0.25-0.1-0.25-0.28C24.83,26.04,24.83,24.87,24.83,23.71z"/>
		<path class="st3" d="M29.82,23.72c0-1.15,0.01-2.29-0.01-3.44c0-0.27,0.08-0.34,0.34-0.33c0.62,0.02,1.24,0.01,1.85,0
			c0.21,0,0.3,0.05,0.29,0.28c-0.01,1.48,0,2.96-0.01,4.45c-0.01,0.83-0.04,1.67-0.05,2.5c0,0.23-0.08,0.32-0.31,0.31
			c-0.61-0.01-1.21-0.01-1.82,0c-0.24,0.01-0.3-0.08-0.3-0.31C29.82,26.04,29.82,24.88,29.82,23.72z"/>
	</g>
</g>
<g id="Calque_2">
	<g>
		<path class="st2" d="M12.27,47.47c0-2.39-0.01-4.78-0.01-7.17c0-4.49,0-8.98,0-13.47c0-4.66,0-9.31,0-13.97c0-0.11,0-0.22,0-0.36
			c1.67,0,3.32,0,4.97,0c0-0.84,0-1.66,0-2.5c-0.81,0-1.62,0-2.48,0c0-0.85,0-1.68,0-2.51c0,0-0.01,0.01-0.01,0.01
			c0.81,0,1.63,0,2.5,0c0,0.86,0,1.67,0,2.52c0.86,0,1.66,0,2.5,0c0,0.85,0,1.67,0,2.5c1.7,0,3.36,0,5.04,0c0-0.84,0-1.65,0-2.46
			c0.11-0.02,0.21-0.06,0.32-0.06c0.52-0.01,1.03,0,1.55,0c0.2,0,0.39,0,0.63,0c0-1.7,0-3.35,0-5l-0.01,0.01c0.82,0,1.63,0,2.47,0
			c0,1.65,0,3.28,0,4.95c-0.8,0-1.62,0-2.45,0c0,0.85,0,1.67,0,2.52c3.3,0,6.61,0,9.94,0c0,1.67,0,3.31,0,4.99c1.68,0,3.33,0,4.97,0
			c-0.02,0.19-0.04,0.34-0.04,0.49c0.02,2.21,0.04,4.41,0.06,6.62c0,0.12-0.01,0.25-0.01,0.37c-0.82,0-1.64,0-2.46,0
			c0-1.65,0-3.31,0-5c-1.69,0-3.34,0-5,0c0-0.82,0-1.65,0-2.47c0-0.83,0-1.66,0-2.5c-1.68,0-3.34,0-5,0c-0.03,0-0.07-0.01-0.1-0.01
			c-4.87,0-9.74,0-14.62,0c-0.1,0-0.19,0.01-0.31,0.02c0,7.52,0,15.01,0,22.51c0,0.82,0,1.65,0,2.47c0,1.67,0,3.35,0,5.02
			c0,0.81,0,1.63,0,2.47C13.89,47.47,13.08,47.47,12.27,47.47z"/>
		<path class="st2" d="M42.23,27.52c0,0.81,0,1.62,0,2.44c-0.76,0-1.52,0-2.28,0c0,0.02,0,0.04,0,0.06c0.76,0,1.52,0,2.27,0
			c0,1.65,0,3.3,0,4.97c-1.65,0-3.3,0-4.97,0c0,4.16,0,8.3,0,12.49c-0.87,0-1.72,0-2.57,0c0.02-0.1,0.07-0.19,0.07-0.29
			c0-0.72,0-1.43-0.01-2.15c0-1.68,0-3.37,0-5.05c0-0.83,0-1.66,0-2.48c0-0.83,0-1.66,0-2.5c0-0.83,0.01-1.65,0.01-2.48
			c1.66,0,3.32,0,5,0c0-1.71,0-3.36,0-5.01C40.59,27.52,41.41,27.52,42.23,27.52z"/>
		<path class="st3" d="M34.76,45.03c0,0.72,0.01,1.43,0.01,2.15c0,0.1-0.05,0.19-0.07,0.29c0,0.02,0.01,0.03,0.01,0.05
			c-0.8,0-1.61,0-2.44,0c0,0.8,0,1.54,0,2.28c-0.02,0-0.04,0-0.06,0c0-0.75,0-1.49,0-2.25c-0.82,0-1.61,0-2.43,0
			c0,0.77,0,1.52,0,2.27c-0.02,0-0.04,0-0.06,0c0-1.58,0-3.17,0-4.77c-0.82,0-1.61,0-2.44,0c0,0.82,0,1.62,0,2.41
			c-0.02,0-0.03,0-0.05-0.01c0-0.8,0-1.6,0-2.4c-0.84,0-1.62,0-2.44,0c0,0.82,0,1.61,0,2.4l-0.03,0.01c0,0-0.03-0.01-0.03-0.01
			c0-0.8,0-1.6,0-2.4c-0.84,0-1.62,0-2.44,0c0,0.82,0,1.61,0,2.4l-0.03,0.01c0,0-0.03-0.01-0.03-0.01c0-0.8,0-1.6,0-2.4
			c-0.86,0-1.67,0-2.5,0c0,0.82,0,1.62,0,2.41c0,0.02,0,0.04-0.01,0.06c-2.48,0-4.97,0-7.45,0c-0.01-0.02-0.01-0.04,0-0.06
			c0.81,0,1.61,0,2.47,0c0-0.84,0-1.66,0-2.47c0.15-0.01,0.29-0.01,0.44-0.01c1.5,0,3-0.01,4.51,0c3.43,0.02,6.86,0.04,10.29,0.05
			c0.76,0,1.53-0.01,2.29-0.01C33.1,45.03,33.93,45.03,34.76,45.03z"/>
		<path class="st2" d="M27.27,47.47c0-0.79,0-1.59,0-2.41c0.83,0,1.61,0,2.44,0c0,1.6,0,3.18,0,4.77c0.02,0,0.04,0,0.06,0
			c0-0.75,0-1.5,0-2.27c0.82,0,1.61,0,2.43,0c0,0.76,0,1.51,0,2.25c0.02,0,0.04,0,0.06,0c0-0.74,0-1.48,0-2.28c0.83,0,1.63,0,2.44,0
			c0.02,0.12,0.05,0.23,0.05,0.35c0.01,0.7,0,1.41,0,2.13c-2.49,0-4.96,0-7.49,0C27.27,49.16,27.27,48.31,27.27,47.47z"/>
		<path class="st2" d="M7.29,2.53c0-0.82,0-1.63,0-2.46c0.03-0.01,0.06-0.03,0.08-0.03c3.29,0,6.59,0,9.88,0c0,0.8,0,1.6,0,2.41
			c-0.14,0.01-0.22,0.02-0.3,0.02c-2.37,0-4.73,0-7.1,0c-0.82,0-1.63,0.02-2.45,0.04C7.37,2.51,7.33,2.52,7.29,2.53z"/>
		<path class="st8" d="M7.29,2.53C7.33,2.52,7.37,2.51,7.41,2.5C7.56,2.51,7.7,2.52,7.85,2.52c2.3,0,4.6,0.01,6.9,0.01
			c-0.01,0.83-0.01,1.67-0.02,2.5c-1.62,0-3.24,0-4.87,0c-0.86,0-1.72-0.01-2.58-0.02C7.26,5,7.24,5,7.22,4.99
			c0-0.82,0-1.64-0.01-2.46C7.24,2.54,7.26,2.53,7.29,2.53z"/>
		<path class="st2" d="M7.29,5.01c0.86,0.01,1.72,0.01,2.58,0.02c1.62,0,3.24,0,4.87,0c0,0,0,0,0,0c0.01,0.82,0.01,1.65,0.02,2.47
			c0,0,0.01-0.01,0.01-0.01c-2.48,0-4.97,0-7.47,0C7.29,6.66,7.29,5.83,7.29,5.01z"/>
		<path class="st2" d="M12.27,47.53c2.48,0,4.97,0,7.45,0c0,0.82,0,1.63,0,2.47c-2.48,0-4.95,0-7.45,0
			C12.27,49.18,12.27,48.36,12.27,47.53z"/>
		<path class="st2" d="M24.79,2.53c0.82,0,1.63,0,2.49,0c0,0.85,0,1.67,0,2.5c0,0,0.01-0.01,0.01-0.01c-0.82,0-1.65,0-2.49,0
			C24.8,4.14,24.8,3.33,24.79,2.53L24.79,2.53z"/>
		<path class="st2" d="M22.29,0.04c0.82,0,1.63,0,2.48,0c0,0.82,0,1.62,0,2.42c-0.81,0-1.63,0-2.48,0
			C22.29,1.63,22.29,0.83,22.29,0.04z"/>
		<path class="st2" d="M7.21,2.54c0,0.82,0,1.64,0.01,2.46c-0.8,0-1.6,0-2.42,0c0-0.81,0-1.63,0-2.46C5.61,2.54,6.41,2.54,7.21,2.54
			z"/>
		<path class="st2" d="M19.74,47.47c0-0.8,0-1.59,0-2.41c0.83,0,1.64,0,2.5,0c0,0.79,0,1.6,0,2.4
			C21.4,47.46,20.57,47.47,19.74,47.47z"/>
		<path class="st2" d="M42.23,25.02c-0.02,0.45-0.05,0.9-0.05,1.35c0,0.36,0.03,0.72,0.05,1.08c-0.82,0-1.64,0-2.47,0
			c0-0.81,0-1.62,0-2.44C40.59,25.02,41.41,25.02,42.23,25.02z"/>
		<path class="st2" d="M17.3,0.04c0.81,0,1.63,0,2.44,0c0,0.8,0,1.6,0,2.4c-0.85,0-1.63,0-2.44,0C17.3,1.63,17.3,0.83,17.3,0.04z"/>
		<path class="st2" d="M19.8,0.04c0.81,0,1.63,0,2.44,0c0,0.8,0,1.6,0,2.4c-0.84,0-1.62,0-2.44,0C19.8,1.63,19.8,0.83,19.8,0.04z"/>
		<path class="st2" d="M22.29,47.46c0-0.79,0-1.59,0-2.4c0.82,0,1.6,0,2.44,0c0,0.8,0,1.6,0,2.4C23.92,47.46,23.1,47.46,22.29,47.46
			z"/>
		<path class="st2" d="M24.79,47.46c0-0.79,0-1.59,0-2.4c0.82,0,1.6,0,2.44,0c0,0.8,0,1.6,0,2.4C26.41,47.46,25.6,47.46,24.79,47.46
			z"/>
		<path class="st3" d="M19.8,0.04c0,0.79,0,1.59,0,2.4c0.82,0,1.6,0,2.44,0c0-0.8,0-1.6,0-2.4c0.02-0.01,0.04-0.01,0.05,0
			c0,0.79,0,1.59,0,2.42c0.85,0,1.66,0,2.48,0c0.01,0.02,0.02,0.04,0.03,0.07c0,0,0,0,0,0c-3.35,0-6.7,0-10.05,0
			c-2.3,0-4.6,0-6.9-0.01c-0.15,0-0.29-0.01-0.43-0.02c0.82-0.01,1.63-0.03,2.45-0.04c2.37,0,4.73,0,7.1,0
			c0.08,0,0.16-0.01,0.3-0.02c0-0.8,0-1.61,0-2.41c0.02-0.01,0.04-0.01,0.05,0c0,0.79,0,1.59,0,2.4c0.81,0,1.59,0,2.44,0
			c0-0.8,0-1.6,0-2.4C19.76,0.03,19.78,0.03,19.8,0.04z"/>
		<path class="st3" d="M42.23,25.02c-0.82,0-1.64,0-2.46,0c-0.01-0.02-0.01-0.04,0-0.06c0.82,0,1.64,0,2.46,0
			C42.24,24.99,42.24,25,42.23,25.02z"/>
		<path class="st3" d="M39.77,27.46c0.82,0,1.64,0,2.47,0c0.01,0.02,0.01,0.04,0,0.06c-0.82,0-1.64,0-2.46,0
			C39.75,27.5,39.75,27.48,39.77,27.46z"/>
		<path class="st3" d="M42.23,30.01c-0.76,0-1.52,0-2.27,0c0-0.02,0-0.04,0-0.06c0.76,0,1.52,0,2.28,0
			C42.24,29.97,42.24,29.99,42.23,30.01z"/>
		<path class="st5" d="M14.74,37.51c0-7.5,0-14.99,0-22.51c0.11-0.01,0.21-0.02,0.31-0.02c4.87,0,9.74,0,14.62,0
			c0.03,0,0.07,0.01,0.1,0.01c0,0.83,0,1.67,0,2.5c-3.33,0-6.66,0-10,0c0,5.85,0,11.66,0,17.51c4.18,0,8.34,0,12.5,0
			c0,0.84-0.01,1.67-0.01,2.51c-2.56,0-5.12,0-7.68,0C21.3,37.5,18.02,37.51,14.74,37.51z"/>
		<path class="st3" d="M32.27,35c-4.16,0-8.32,0-12.5,0c0-5.85,0-11.66,0-17.51c3.34,0,6.67,0,10,0c1.67,0,3.33,0,5,0
			c0,0.82,0,1.65,0,2.47c0,0,0,0.02,0,0.02c-0.06,0-0.11-0.01-0.17-0.01c-4.04,0-8.08,0-12.13,0c-0.07,0-0.15,0.01-0.23,0.02
			c0,4.18,0,8.34,0,12.52c0.12,0,0.2,0,0.29,0c2.41,0,4.83,0.01,7.24,0c1.66,0,3.32-0.01,4.98-0.02l0.01,0.02
			c0,0.83-0.01,1.65-0.01,2.48C33.93,35,33.1,35,32.27,35z"/>
		<path class="st5" d="M32.27,45.03c-0.76,0-1.53,0.01-2.29,0.01c-3.43-0.02-6.86-0.04-10.29-0.05c-1.5-0.01-3,0-4.51,0
			c-0.15,0-0.29,0.01-0.44,0.01c0-1.67,0-3.35,0-5.02c5.84,0,11.68,0,17.51,0C32.26,41.66,32.27,43.35,32.27,45.03z"/>
		<path class="st6" d="M14.75,2.53c3.35,0,6.7,0,10.05,0c0,0.81,0,1.62,0,2.49c0.84,0,1.67,0,2.49,0c0,1.65,0,3.29,0,5
			c-0.24,0-0.44,0-0.63,0c-0.52,0-1.03,0-1.55,0c-0.11,0-0.21,0.04-0.32,0.06c-0.27-0.02-0.53-0.06-0.8-0.06
			c-0.58-0.01-1.16,0-1.77,0c0-0.85,0-1.65,0-2.5c-0.85,0-1.66,0-2.5,0c0-0.85,0-1.65,0-2.47c-1.69,0-3.33,0-4.98,0c0,0,0,0,0,0
			C14.74,4.2,14.74,3.36,14.75,2.53z"/>
		<path class="st7" d="M39.77,27.46c-0.01,0.02-0.01,0.04,0,0.06c0,1.65,0,3.29,0,5.01c-1.67,0-3.34,0-5,0c0,0-0.01-0.02-0.01-0.02
			c0-0.84,0-1.67,0-2.51c0.82,0,1.65,0,2.45,0c0-2.52,0-5,0-7.49c-0.84,0-1.64,0-2.45,0c0-0.84,0-1.67,0-2.51c0,0,0-0.02,0-0.02
			c1.65,0,3.31,0,5,0c0,1.69,0,3.35,0,5c-0.01,0.02-0.01,0.04,0,0.06C39.77,25.84,39.77,26.65,39.77,27.46z"/>
		<path class="st3" d="M32.26,39.98c-5.84,0-11.68,0-17.51,0c0-0.82,0-1.65,0-2.47c3.28,0,6.56,0,9.83-0.01c2.56,0,5.12,0,7.68,0
			c0,0,0,0,0,0C32.26,38.33,32.26,39.15,32.26,39.98L32.26,39.98z"/>
		<path class="st8" d="M14.74,5.03c1.65,0,3.29,0,4.98,0c0,0.82,0,1.62,0,2.47c0.85,0,1.66,0,2.5,0c0,0.85,0,1.65,0,2.5
			c0.62,0,1.19-0.01,1.77,0c0.27,0,0.53,0.04,0.8,0.06c0,0.81,0,1.61,0,2.46c-1.68,0-3.34,0-5.04,0c0-0.84,0-1.65,0-2.5
			c-0.84,0-1.64,0-2.5,0c0-0.85,0-1.66,0-2.52c-0.87,0-1.69,0-2.5,0C14.75,6.68,14.74,5.86,14.74,5.03z"/>
		<path class="st7" d="M34.77,17.49c-1.67,0-3.33,0-5,0c0-0.83,0-1.67,0-2.5c1.66,0,3.32,0,5,0C34.77,15.84,34.77,16.67,34.77,17.49
			z"/>
		<path class="st7" d="M32.27,45.03c0-1.68-0.01-3.37-0.01-5.05c0,0,0,0,0,0c0.83,0,1.67,0,2.5,0.01c0,1.68,0,3.37,0,5.05
			C33.93,45.03,33.1,45.03,32.27,45.03z"/>
		<path class="st7" d="M32.27,35c0.83,0,1.66,0,2.49,0.01c0,0.83,0,1.66,0,2.5c-0.83,0-1.67,0.01-2.5,0.01c0,0,0,0,0,0
			C32.26,36.67,32.26,35.83,32.27,35z"/>
		<path class="st5" d="M32.26,37.51c0.83,0,1.67-0.01,2.5-0.01c0,0.83,0,1.66,0,2.48c-0.83,0-1.67,0-2.5-0.01
			C32.26,39.15,32.26,38.33,32.26,37.51z"/>
		<path class="st5" d="M34.77,29.99c0,0.84,0,1.67,0,2.51c-1.66,0.01-3.32,0.02-4.98,0.02c-2.41,0-4.83,0-7.24,0
			c-0.09,0-0.18,0-0.29,0c0-4.18,0-8.34,0-12.52c0.08-0.01,0.15-0.02,0.23-0.02c4.04,0,8.08,0,12.13,0c0.06,0,0.11,0.01,0.17,0.01
			c0,0.84,0,1.67,0,2.51C34.77,24.99,34.77,27.49,34.77,29.99z M27.25,29.99c0-2.52,0-4.99,0-7.48c-0.82,0-1.62,0-2.43,0
			c0,2.51,0,4.99,0,7.48C25.64,29.99,26.44,29.99,27.25,29.99z M29.8,22.5c0,2.52,0,4.99,0,7.48c0.82,0,1.62,0,2.43,0
			c0-2.51,0-4.99,0-7.48C31.41,22.5,30.62,22.5,29.8,22.5z"/>
		<path class="st3" d="M34.77,29.99c0-2.5,0-5,0-7.49c0.8,0,1.61,0,2.45,0c0,2.5,0,4.98,0,7.49C36.42,29.99,35.59,29.99,34.77,29.99
			z"/>
		<path class="st3" d="M27.25,29.99c-0.82,0-1.61,0-2.43,0c0-2.49,0-4.98,0-7.48c0.8,0,1.6,0,2.43,0
			C27.25,24.99,27.25,27.47,27.25,29.99z"/>
		<path class="st3" d="M29.8,22.5c0.81,0,1.61,0,2.43,0c0,2.49,0,4.98,0,7.48c-0.81,0-1.61,0-2.43,0
			C29.8,27.49,29.8,25.02,29.8,22.5z"/>
	</g>
</g>
</svg>
