<?xml version="1.0" encoding="utf-8"?>
<!-- Generator: Adobe Illustrator 24.1.1, SVG Export Plug-In . SVG Version: 6.00 Build 0)  -->
<svg version="1.1" xmlns="http://www.w3.org/2000/svg" xmlns:xlink="http://www.w3.org/1999/xlink" x="0px" y="0px"
	 viewBox="0 0 50 50" style="enable-background:new 0 0 50 50;" xml:space="preserve">
<style type="text/css">
	.st0{display:none;}
	.st1{display:inline;}
	.st2{fill:#222222;}
	.st3{fill:#417188;}
	.st4{fill:#0071BC;}
	.st5{fill:#72D5CD;}
	.st6{fill:#29ABE2;}
	.st7{fill:#FCF6ED;}
</style>
<g id="Calque_1" class="st0">
	<g class="st1">
		<path class="st2" d="M24.78,5c-0.74,0-1.48,0.01-2.22-0.01c-0.23-0.01-0.27,0.08-0.27,0.29c0.01,1.43,0,2.85,0,4.28
			c0,0.43,0,0.43-0.44,0.43c-2.23,0-4.47,0.01-6.7-0.01c-0.29,0-0.35,0.08-0.34,0.35c0.01,1.46,0,2.92,0.01,4.38
			c0,0.22-0.06,0.27-0.28,0.27c-1.47-0.01-2.94,0-4.41-0.01c-0.25,0-0.31,0.06-0.31,0.31c0.01,3.12,0.01,6.24,0.01,9.36
			c0,1.01-0.01,2.02,0,3.03c0.01,1.57,0.04,3.14,0.07,4.7c0,0.03,0.14,0.1,0.21,0.1c1.45,0.01,2.9,0.01,4.34,0
			c0.31,0,0.38,0.08,0.38,0.38c-0.01,3.92,0,7.84-0.01,11.75c0,0.27,0.05,0.37,0.34,0.36c0.72-0.02,1.44-0.01,2.15-0.01
			c0-0.83,0-1.65-0.01-2.48c0-1.67,0-3.33,0.01-5c0-0.83,0-1.65,0-2.48c0-0.83,0-1.67,0-2.5c0-0.83-0.01-1.65-0.01-2.48
			c-1.56,0-3.12-0.01-4.68-0.01c-0.24,0-0.32-0.03-0.31-0.3c0.01-3.98,0.01-7.96,0-11.95c0-0.26,0.08-0.3,0.31-0.3
			c1.56,0.01,3.12,0,4.68-0.01c0-0.83,0.01-1.65,0.01-2.48c0-0.75,0-1.5-0.01-2.25c-0.01-0.22,0.07-0.25,0.26-0.25
			c1.58,0.01,3.16,0.01,4.74,0.01c1.56,0,3.12,0,4.68-0.01c0.1,0,0.21-0.06,0.31-0.1c0-0.77,0-1.54,0-2.31
			c-0.12-0.02-0.23-0.06-0.35-0.06c-0.62-0.01-1.24-0.02-1.85,0c-0.26,0.01-0.31-0.08-0.31-0.32C24.78,8.11,24.77,6.55,24.78,5
			L24.78,5z"/>
		<path class="st2" d="M34.88,47.45c-0.02,0.1-0.06,0.19-0.06,0.29c-0.01,0.66,0.01,1.33-0.01,1.99C34.8,49.95,34.88,50,35.09,50
			c1.46-0.01,2.92-0.01,4.38,0c0.27,0,0.33-0.08,0.33-0.34c-0.01-3.91-0.01-7.82-0.01-11.72c0-4.56,0-9.12,0-13.68
			c0-4.64-0.01-9.27,0-13.91c0-0.32-0.1-0.38-0.39-0.37c-0.59,0.02-1.19,0-1.78,0.01c-0.24,0.01-0.35-0.03-0.34-0.32
			c0.02-0.73,0.01-1.46,0.01-2.19c0,0,0.01,0,0.01,0c-0.77,0-1.55,0.01-2.32,0c-0.15,0-0.17,0-0.17,0.16
			c0.02,0.68-0.01,1.37,0.01,2.05c0.01,0.25-0.08,0.29-0.3,0.29c-0.64-0.01-1.28,0-1.92-0.01c-0.22,0-0.29,0.05-0.29,0.28
			c0.02,0.75,0.01,1.5,0.01,2.25c1.55,0,3.1,0.02,4.65,0.01c0.29,0,0.35,0.08,0.35,0.35c-0.01,3.33-0.01,6.65-0.01,9.98
			c0,1.7,0,3.4,0,5.1c0,2.35,0,4.69,0,7.04c0,0.82,0,1.64,0,2.47c0,1.67,0,3.35,0,5.02c0,0.81,0.01,1.62,0.01,2.42
			c0,0.77,0,1.55-0.01,2.32c0,0.1-0.12,0.27-0.19,0.27C36.37,47.5,35.62,47.47,34.88,47.45z"/>
		<path class="st3" d="M34.88,47.45c0.75,0.02,1.5,0.05,2.24,0.05c0.06,0,0.18-0.17,0.19-0.27c0.02-0.77,0.01-1.55,0.01-2.32
			c0-0.81-0.01-1.62-0.01-2.42c-1.88-0.01-3.77-0.03-5.65-0.03c-3.96,0-7.91,0.01-11.87,0.01c-0.83,0-1.67,0-2.5,0
			c0,0.83,0,1.65,0.01,2.48c0,0.04,0.01,0.09,0.01,0.13c0.06-0.02,0.12-0.06,0.19-0.06c0.69,0,1.38,0,2.08-0.01
			c0.23,0,0.21,0.14,0.21,0.29c0,0.71,0.01,1.43,0.01,2.14c0.01,0.02,0.01,0.05,0.02,0.07c0.73,0,1.46,0.01,2.19-0.01
			c0.24,0,0.31,0.08,0.3,0.31c-0.01,0.58-0.01,1.17,0,1.75c0,0.08,0.01,0.15,0.02,0.23c0.01-0.08,0.03-0.16,0.03-0.25
			c0-0.56,0.01-1.12,0-1.68c-0.01-0.27,0.05-0.38,0.35-0.37c0.69,0.02,1.39,0.01,2.09,0.01c-0.02-0.04-0.05-0.08-0.07-0.12
			c-0.62,0.02-1.25,0.05-1.87,0.07c-0.39,0.02-0.48-0.05-0.48-0.45c0-0.68,0.03-1.36,0.03-2.04c0-0.72-0.01-1.43-0.04-2.15
			c-0.01-0.24,0.08-0.31,0.31-0.3c0.62,0.01,1.23,0.01,1.85,0c0.22,0,0.29,0.07,0.29,0.29c-0.01,0.72,0,1.44,0,2.15
			c0.02,0,0.04,0,0.05-0.01c0-0.72,0-1.44-0.01-2.15c0-0.2,0.05-0.28,0.27-0.28c0.64,0.01,1.28,0.01,1.92,0
			c0.21,0,0.27,0.08,0.27,0.28c-0.01,0.72,0,1.44-0.01,2.15l0.03,0.01c0,0,0.03-0.01,0.03-0.01c0-0.72,0-1.44-0.01-2.15
			c0-0.2,0.05-0.28,0.27-0.28c0.64,0.01,1.28,0.01,1.92,0c0.21,0,0.27,0.08,0.27,0.28c-0.01,0.72-0.01,1.44-0.01,2.15l0.03,0.01
			c0,0,0.03-0.01,0.03-0.01c0-0.72,0-1.44-0.01-2.15c0-0.2,0.05-0.28,0.27-0.28c0.64,0.01,1.28,0.01,1.92,0
			c0.21,0,0.27,0.08,0.27,0.28c-0.01,0.72-0.01,1.44-0.01,2.15c0.02,0.03,0.05,0.05,0.07,0.08c0.71,0,1.43,0,2.14-0.01
			c0.22,0,0.29,0.07,0.29,0.29c-0.01,0.71-0.01,1.43-0.01,2.14C34.79,47.44,34.83,47.44,34.88,47.45z"/>
		<path class="st2" d="M42.28,2.45c0-0.72,0-1.44,0.02-2.15C42.3,0.05,42.23,0,41.99,0c-3.19,0.01-6.38,0.01-9.56,0.01
			c-1.62,0-3.23,0.01-4.85-0.01c-0.25,0-0.32,0.06-0.31,0.31c0.02,0.71,0.01,1.41,0.02,2.12c2.47,0,4.94,0,7.4,0.01
			c1.67,0,3.34,0.01,5.01,0.01c0.06,0,0.12,0,0.18,0c0.74,0,1.48,0,2.23,0C42.17,2.45,42.22,2.45,42.28,2.45z"/>
		<path class="st4" d="M39.89,2.46c-0.06,0-0.12,0-0.18,0c-0.11,0.01-0.22,0.04-0.32,0.04C38.69,2.5,38,2.5,37.31,2.51
			c0,0.83,0.01,1.66,0.01,2.5c1.56,0,3.11,0,4.67-0.01c0.23,0,0.31,0.06,0.31,0.3c-0.02,0.6-0.01,1.21,0,1.81
			c0,0.13,0.05,0.26,0.07,0.38c0,0-0.01-0.01-0.01-0.01c0.71,0,1.43,0,2.14,0.01c0.24,0,0.31-0.1,0.31-0.32
			c-0.01-0.7-0.01-1.41-0.01-2.11c-0.01-0.03-0.02-0.05-0.03-0.08c-0.71,0-1.41-0.02-2.12-0.01c-0.26,0-0.36-0.06-0.35-0.34
			c0.02-0.71,0-1.41,0-2.12c-0.01-0.03-0.01-0.05-0.02-0.08c-0.05,0-0.11,0.01-0.16,0.01C41.37,2.46,40.63,2.46,39.89,2.46z"/>
		<path class="st2" d="M42.36,7.49c-0.03-0.13-0.07-0.26-0.07-0.38c-0.01-0.6-0.01-1.21,0-1.81c0.01-0.24-0.07-0.3-0.31-0.3
			C40.43,5,38.88,5,37.32,5c0,0-0.01,0.01-0.01,0.01c0,0.83-0.01,1.65-0.01,2.48c0,0-0.01,0-0.01,0
			C38.99,7.48,40.67,7.49,42.36,7.49z"/>
		<path class="st2" d="M44.8,5.07c0,0.7,0,1.41,0.01,2.11c0,0.22-0.07,0.33-0.31,0.32c-0.71-0.01-1.43-0.01-2.14-0.01
			c-0.02,0.27-0.05,0.55-0.05,0.82c-0.01,0.47,0.01,0.94-0.01,1.41c-0.01,0.22,0.07,0.26,0.27,0.26c0.66-0.01,1.32-0.01,1.98,0
			c0.19,0,0.25-0.06,0.24-0.25c-0.01-0.67,0-1.35-0.01-2.02c0-0.19,0.06-0.24,0.24-0.24c0.66,0.01,1.32-0.01,1.98,0.01
			c0.23,0.01,0.28-0.06,0.28-0.28c-0.01-0.66,0-1.32-0.01-1.98c0-0.08-0.09-0.21-0.14-0.21C46.39,4.99,45.67,4.99,44.94,5
			C44.89,5,44.84,5.04,44.8,5.07z"/>
		<path class="st2" d="M24.76,47.5c-0.7,0-1.39,0.01-2.09-0.01c-0.29-0.01-0.36,0.1-0.35,0.37c0.02,0.56,0.01,1.12,0,1.68
			c0,0.08-0.02,0.16-0.03,0.25c-0.01-0.08-0.02-0.15-0.02-0.23c0-0.58-0.01-1.17,0-1.75c0.01-0.23-0.06-0.32-0.3-0.31
			c-0.73,0.01-1.46,0.01-2.19,0.01c0,0.75,0,1.5-0.01,2.25c0,0.17,0.04,0.23,0.22,0.23c1.51-0.01,3.03-0.01,4.54,0
			c0.19,0,0.22-0.07,0.22-0.24C24.77,49.01,24.77,48.26,24.76,47.5z"/>
		<path class="st2" d="M24.78,44.95c0-0.72-0.01-1.44,0-2.15c0-0.22-0.07-0.29-0.29-0.29c-0.62,0.01-1.23,0.01-1.85,0
			c-0.23,0-0.32,0.06-0.31,0.3c0.03,0.72,0.04,1.43,0.04,2.15c0,0.68-0.03,1.36-0.03,2.04c0,0.4,0.09,0.47,0.48,0.45
			c0.62-0.03,1.25-0.05,1.87-0.07c0.03-0.13,0.07-0.25,0.07-0.38C24.78,46.32,24.78,45.63,24.78,44.95z"/>
		<path class="st2" d="M27.27,2.5c-0.74,0-1.48,0.01-2.22-0.01c-0.23,0-0.28,0.07-0.27,0.29c0.01,0.74,0,1.48,0,2.22
			c0,0-0.01-0.01-0.01-0.01c0.74,0,1.48-0.02,2.21-0.01c0.22,0,0.29-0.05,0.28-0.28c-0.01-0.72,0-1.43,0-2.15
			C27.26,2.54,27.26,2.52,27.27,2.5z"/>
		<path class="st2" d="M42.3,2.53c0,0.71,0.02,1.41,0,2.12c-0.01,0.27,0.09,0.34,0.35,0.34c0.71-0.01,1.41,0,2.12,0.01
			c0.01-0.77,0.02-1.55,0.01-2.32c0-0.06-0.1-0.17-0.16-0.17C43.84,2.51,43.07,2.52,42.3,2.53z"/>
		<path class="st2" d="M19.79,47.44c0-0.71-0.01-1.43-0.01-2.14c0-0.15,0.02-0.29-0.21-0.29c-0.69,0.01-1.38,0-2.08,0.01
			c-0.06,0-0.12,0.04-0.19,0.06c0,0.71,0,1.41-0.01,2.12c0,0.18,0.04,0.25,0.24,0.25C18.28,47.43,19.04,47.44,19.79,47.44z"/>
		<path class="st2" d="M32.25,44.94c0-0.72,0-1.44,0.01-2.15c0-0.2-0.06-0.28-0.27-0.28c-0.64,0.01-1.28,0.01-1.92,0
			c-0.21,0-0.27,0.08-0.27,0.28c0.01,0.72,0,1.44,0.01,2.15C30.63,44.94,31.44,44.94,32.25,44.94z"/>
		<path class="st2" d="M29.76,44.94c0-0.72,0-1.44,0.01-2.15c0-0.2-0.05-0.28-0.27-0.28c-0.64,0.01-1.28,0.01-1.92,0
			c-0.21,0-0.27,0.08-0.27,0.28c0.01,0.72,0,1.44,0.01,2.15C28.14,44.94,28.95,44.94,29.76,44.94z"/>
		<path class="st2" d="M27.27,44.94c0-0.72,0-1.44,0.01-2.15c0-0.2-0.05-0.28-0.27-0.28c-0.64,0.01-1.28,0.01-1.92,0
			c-0.21,0-0.27,0.08-0.27,0.28c0.01,0.72,0.01,1.44,0.01,2.15C25.65,44.94,26.46,44.94,27.27,44.94z"/>
		<path class="st2" d="M34.75,47.43c0-0.71,0-1.43,0.01-2.14c0-0.22-0.07-0.29-0.29-0.29c-0.71,0.01-1.43,0.01-2.14,0.01
			c0,0.74,0,1.48-0.01,2.22c0,0.16,0.04,0.21,0.21,0.21C33.26,47.44,34.01,47.44,34.75,47.43z"/>
		<path class="st3" d="M27.27,2.5c-0.01,0.02-0.01,0.04,0,0.05c0.89-0.02,1.78-0.05,2.68-0.06c2.45-0.01,4.9,0,7.36,0.01
			c0.69,0,1.38-0.01,2.08-0.01c0.11,0,0.22-0.02,0.32-0.04c-1.67,0-3.34-0.01-5.01-0.01c-2.47,0-4.94,0-7.4-0.01
			C27.28,2.46,27.28,2.48,27.27,2.5z"/>
		<path class="st5" d="M37.31,34.99c0-2.35,0-4.69,0-7.04c0-1.7,0-3.4,0-5.1c0-3.33,0-6.65,0.01-9.98c0-0.28-0.06-0.35-0.35-0.35
			c-1.55,0.01-3.1,0-4.65-0.01c-0.14-0.01-0.28-0.04-0.43-0.04c-1.4,0-2.79,0-4.19-0.01c-0.15,0-0.29-0.07-0.44-0.11
			c-0.1,0.03-0.21,0.1-0.31,0.1c-1.56,0.01-3.12,0.01-4.68,0.01c0,0.83,0,1.67,0,2.5c2.54,0,5.07,0,7.61,0
			c0.62,0,1.24,0.02,1.85-0.01c0.56-0.02,0.56-0.04,0.56,0.5c0,5.52,0,11.04,0,16.57c0,0.44,0,0.44-0.43,0.44
			c-4.03,0-8.06,0-12.09,0c0,0.83-0.01,1.66-0.01,2.5c0,0,0.02,0.02,0.02,0.02c1.71,0,3.41-0.01,5.12-0.01
			C29.05,34.99,33.18,34.99,37.31,34.99z"/>
		<path class="st3" d="M19.79,32.48c4.03,0,8.06,0,12.09,0c0.43,0,0.43,0,0.43-0.44c0-5.52,0-11.04,0-16.57c0-0.54,0-0.52-0.56-0.5
			c-0.62,0.02-1.23,0.01-1.85,0.01c-2.54,0-5.07,0-7.61,0c-1.66,0-3.33,0-4.99-0.01c0,0.83-0.01,1.65-0.01,2.48
			c0,0,0.01,0.02,0.01,0.02c0.04,0,0.09-0.01,0.13-0.01c4.04,0,8.08,0,12.12-0.01c0.3,0,0.28,0.15,0.28,0.35
			c0,3.95,0,7.9,0.01,11.86c0,0.28-0.08,0.35-0.35,0.35c-2.4-0.01-4.8,0-7.21,0c-1.66,0-3.32-0.01-4.98-0.02l-0.01,0.02
			c0,0.83,0.01,1.65,0.01,2.48C18.13,32.48,18.96,32.48,19.79,32.48z"/>
		<path class="st6" d="M37.31,2.51c-2.45,0-4.9-0.01-7.36-0.01c-0.89,0-1.78,0.04-2.68,0.06c0,0.72-0.02,1.43,0,2.15
			c0,0.23-0.07,0.28-0.28,0.28c-0.74-0.01-1.48,0-2.21,0.01c0,1.56,0,3.12-0.01,4.68c0,0.24,0.04,0.33,0.31,0.32
			c0.62-0.02,1.23-0.01,1.85,0c0.12,0,0.23,0.04,0.35,0.06c0.11-0.02,0.22-0.06,0.32-0.06c0.67-0.01,1.35-0.01,2.02,0.01
			c0.19,0.01,0.22-0.04,0.22-0.21c-0.01-0.61,0-1.21,0-1.82c0-0.48,0-0.48,0.46-0.48c0.62,0,1.23,0,1.85,0
			c0.15,0,0.2-0.01,0.19-0.19c-0.02-0.67-0.01-1.35-0.01-2.02c0-0.18,0.03-0.29,0.25-0.29C34.15,5,35.73,5,37.31,5.01
			c0,0,0.01-0.01,0.01-0.01C37.32,4.17,37.31,3.34,37.31,2.51z"/>
		<path class="st7" d="M17.29,17.44c-1.56,0-3.12,0.01-4.68,0.01c-0.24,0-0.32,0.04-0.31,0.3c0.01,3.98,0.01,7.96,0,11.95
			c0,0.27,0.08,0.3,0.31,0.3c1.56-0.01,3.12,0,4.68,0.01c0,0,0.01-0.02,0.01-0.02c0-0.84,0-1.67,0-2.51
			c-0.75,0.01-1.5,0.01-2.26,0.02c-0.18,0-0.23-0.06-0.23-0.23c0-2.36,0-4.72,0-7.07c0-0.17,0.05-0.24,0.23-0.23
			c0.75,0.01,1.5,0.01,2.26,0.02c0-0.84,0-1.67,0-2.51L17.29,17.44z"/>
		<path class="st4" d="M37.31,5.01c-1.58,0-3.16,0-4.74-0.02c-0.23,0-0.25,0.1-0.25,0.29c0.01,0.67-0.01,1.35,0.01,2.02
			c0.01,0.18-0.05,0.2-0.19,0.19c-0.62-0.01-1.23,0-1.85,0c-0.46,0-0.46,0-0.46,0.48c0,0.61,0,1.21,0,1.82
			c0,0.17-0.03,0.21-0.22,0.21c-0.67-0.02-1.35-0.01-2.02-0.01c-0.11,0-0.22,0.04-0.32,0.06c0,0.77,0,1.54,0,2.31
			c0.15,0.04,0.29,0.11,0.44,0.11c1.4,0.01,2.79,0,4.19,0.01c0.14,0,0.28,0.03,0.43,0.04c0-0.75,0.01-1.5-0.01-2.25
			c0-0.23,0.07-0.28,0.29-0.28c0.64,0.01,1.28,0,1.92,0.01c0.22,0,0.31-0.04,0.3-0.29c-0.02-0.68,0-1.37-0.01-2.05
			c0-0.16,0.02-0.16,0.17-0.16c0.77,0.01,1.55,0,2.32,0C37.31,6.66,37.31,5.83,37.31,5.01z"/>
		<path class="st7" d="M17.3,14.96c1.66,0,3.33,0,4.99,0.01c0-0.83,0-1.67,0-2.5c-1.58,0-3.16,0-4.74-0.01
			c-0.19,0-0.27,0.03-0.26,0.25C17.3,13.46,17.3,14.21,17.3,14.96z"/>
		<path class="st7" d="M17.29,42.46c0.83,0,1.67,0,2.5,0c0-1.66,0-3.33-0.01-4.99c-0.83,0-1.66,0-2.49-0.01
			C17.29,39.13,17.29,40.8,17.29,42.46z"/>
		<path class="st7" d="M19.79,32.48c-0.83,0-1.66,0-2.49,0.01c0,0.83,0,1.67,0,2.5c0.83,0,1.66-0.01,2.49-0.01
			C19.79,34.14,19.79,33.31,19.79,32.48z"/>
		<path class="st5" d="M19.79,34.98c-0.83,0-1.66,0.01-2.49,0.01c0,0.83,0,1.65,0,2.48c0.83,0,1.66,0,2.49,0.01
			c0.01-0.01,0.02-0.02,0.03-0.03c0-0.82,0-1.63,0-2.45L19.79,34.98z"/>
		<path class="st5" d="M19.79,37.47c0,1.66,0,3.33,0.01,4.99c3.96,0,7.91-0.01,11.87-0.01c1.88,0,3.77,0.02,5.65,0.03
			c0-1.67,0-3.35,0-5.02c-0.13,0-0.27,0.01-0.4,0.01c-4.16,0-8.32,0-12.49,0c-1.54,0-3.07-0.01-4.61-0.02
			C19.8,37.45,19.79,37.46,19.79,37.47z"/>
		<path class="st3" d="M19.81,37.45c1.54,0.01,3.07,0.02,4.61,0.02c4.16,0,8.32,0,12.49,0c0.13,0,0.27,0,0.4-0.01
			c0-0.82,0-1.64,0-2.47c-4.13,0-8.26-0.01-12.39-0.01c-1.71,0-3.41,0.01-5.12,0.01C19.81,35.81,19.81,36.63,19.81,37.45z"/>
		<path class="st3" d="M39.89,2.46c0.74,0,1.48,0,2.23,0C41.37,2.46,40.63,2.46,39.89,2.46z"/>
		<path class="st5" d="M17.29,19.97c0-0.84,0-1.67,0-2.51c0.04,0,0.09-0.01,0.13-0.01c4.04,0,8.08,0,12.12-0.01
			c0.3,0,0.28,0.15,0.28,0.35c0,3.95,0,7.9,0.01,11.86c0,0.28-0.08,0.35-0.35,0.35c-2.4-0.01-4.8,0-7.21,0
			c-1.66,0-3.32-0.01-4.98-0.02c0-0.84,0-1.67,0-2.51C17.29,24.97,17.29,22.47,17.29,19.97z M27.27,20.3c0-0.29-0.09-0.36-0.36-0.35
			c-0.62,0.02-1.23,0.01-1.85,0c-0.2,0-0.28,0.06-0.27,0.27c0.01,2.34,0,4.67,0,7.01c0,0.18,0.04,0.27,0.24,0.26
			c0.66-0.01,1.32-0.01,1.99,0c0.22,0,0.25-0.1,0.25-0.28c-0.01-1.17,0-2.34,0-3.5C27.26,22.57,27.25,21.44,27.27,20.3z
			 M22.28,20.29c0-0.27-0.08-0.34-0.34-0.33c-0.62,0.02-1.24,0.01-1.85,0c-0.21,0-0.3,0.05-0.29,0.28c0.01,1.48,0,2.96,0.01,4.45
			c0.01,0.83,0.04,1.67,0.05,2.5c0,0.23,0.08,0.32,0.31,0.31c0.61-0.01,1.21-0.01,1.82,0c0.24,0.01,0.3-0.08,0.3-0.31
			c-0.01-1.16,0-2.31,0-3.47C22.28,22.58,22.27,21.43,22.28,20.29z"/>
		<path class="st3" d="M17.29,27.47c0-2.5,0-5,0-7.5c-0.75,0-1.5,0-2.26-0.02c-0.18,0-0.23,0.06-0.23,0.23c0,2.36,0,4.72,0,7.07
			c0,0.18,0.05,0.23,0.23,0.23C15.78,27.48,16.54,27.48,17.29,27.47z"/>
		<path class="st3" d="M27.26,23.71c0-1.13-0.01-2.27,0.01-3.4c0-0.29-0.09-0.36-0.36-0.35c-0.62,0.02-1.23,0.01-1.85,0
			c-0.2,0-0.28,0.06-0.27,0.27c0.01,2.34,0,4.67,0,7.01c0,0.18,0.04,0.27,0.24,0.26c0.66-0.01,1.32-0.01,1.99,0
			c0.22,0,0.25-0.1,0.25-0.28C27.26,26.04,27.26,24.87,27.26,23.71z"/>
		<path class="st3" d="M22.28,23.72c0-1.15-0.01-2.29,0.01-3.44c0-0.27-0.08-0.34-0.34-0.33c-0.62,0.02-1.24,0.01-1.85,0
			c-0.21,0-0.3,0.05-0.29,0.28c0.01,1.48,0,2.96,0.01,4.45c0.01,0.83,0.04,1.67,0.05,2.5c0,0.23,0.08,0.32,0.31,0.31
			c0.61-0.01,1.21-0.01,1.82,0c0.24,0.01,0.3-0.08,0.3-0.31C22.27,26.04,22.28,24.88,22.28,23.72z"/>
	</g>
</g>
<g id="Calque_2">
	<g>
		<path class="st2" d="M39.76,47.47c0-2.39,0.01-4.78,0.01-7.17c0-4.49,0-8.98,0-13.47c0-4.66,0-9.31,0-13.97c0-0.11,0-0.22,0-0.36
			c-1.67,0-3.32,0-4.97,0c0-0.84,0-1.66,0-2.5c0.81,0,1.62,0,2.48,0c0-0.85,0-1.68,0-2.51c0,0,0.01,0.01,0.01,0.01
			c-0.81,0-1.63,0-2.5,0c0,0.86,0,1.67,0,2.52c-0.86,0-1.66,0-2.5,0c0,0.85,0,1.67,0,2.5c-1.7,0-3.36,0-5.04,0c0-0.84,0-1.65,0-2.46
			c-0.11-0.02-0.21-0.06-0.32-0.06c-0.52-0.01-1.03,0-1.55,0c-0.2,0-0.39,0-0.63,0c0-1.7,0-3.35,0-5l0.01,0.01
			c-0.82,0-1.63,0-2.47,0c0,1.65,0,3.28,0,4.95c0.8,0,1.62,0,2.45,0c0,0.85,0,1.67,0,2.52c-3.3,0-6.61,0-9.94,0
			c0,1.67,0,3.31,0,4.99c-1.68,0-3.33,0-4.97,0c0.02,0.19,0.04,0.34,0.04,0.49c-0.02,2.21-0.04,4.41-0.06,6.62
			c0,0.12,0.01,0.25,0.01,0.37c0.82,0,1.64,0,2.46,0c0-1.65,0-3.31,0-5c1.69,0,3.34,0,5,0c0-0.82,0-1.65,0-2.47c0-0.83,0-1.66,0-2.5
			c1.68,0,3.34,0,5,0c0.03,0,0.07-0.01,0.1-0.01c4.87,0,9.74,0,14.62,0c0.1,0,0.19,0.01,0.31,0.02c0,7.52,0,15.01,0,22.51
			c0,0.82,0,1.65,0,2.47c0,1.67,0,3.35,0,5.02c0,0.81,0,1.63,0,2.47C38.15,47.47,38.96,47.47,39.76,47.47z"/>
		<path class="st2" d="M9.81,27.52c0,0.81,0,1.62,0,2.44c0.76,0,1.52,0,2.28,0c0,0.02,0,0.04,0,0.06c-0.76,0-1.52,0-2.27,0
			c0,1.65,0,3.3,0,4.97c1.65,0,3.3,0,4.97,0c0,4.16,0,8.3,0,12.49c0.87,0,1.72,0,2.57,0c-0.02-0.1-0.07-0.19-0.07-0.29
			c0-0.72,0-1.43,0.01-2.15c0-1.68,0-3.37,0-5.05c0-0.83,0-1.66,0-2.48c0-0.83,0-1.66,0-2.5c0-0.83-0.01-1.65-0.01-2.48
			c-1.66,0-3.32,0-5,0c0-1.71,0-3.36,0-5.01C11.45,27.52,10.63,27.52,9.81,27.52z"/>
		<path class="st3" d="M17.28,45.03c0,0.72-0.01,1.43-0.01,2.15c0,0.1,0.05,0.19,0.07,0.29c0,0.02-0.01,0.03-0.01,0.05
			c0.8,0,1.61,0,2.44,0c0,0.8,0,1.54,0,2.28c0.02,0,0.04,0,0.06,0c0-0.75,0-1.49,0-2.25c0.82,0,1.61,0,2.43,0c0,0.77,0,1.52,0,2.27
			c0.02,0,0.04,0,0.06,0c0-1.58,0-3.17,0-4.77c0.82,0,1.61,0,2.44,0c0,0.82,0,1.62,0,2.41c0.02,0,0.03,0,0.05-0.01
			c0-0.8,0-1.6,0-2.4c0.84,0,1.62,0,2.44,0c0,0.82,0,1.61,0,2.4l0.03,0.01c0,0,0.03-0.01,0.03-0.01c0-0.8,0-1.6,0-2.4
			c0.84,0,1.62,0,2.44,0c0,0.82,0,1.61,0,2.4l0.03,0.01c0,0,0.03-0.01,0.03-0.01c0-0.8,0-1.6,0-2.4c0.86,0,1.67,0,2.5,0
			c0,0.82,0,1.62,0,2.41c0,0.02,0,0.04,0.01,0.06c2.48,0,4.97,0,7.45,0c0.01-0.02,0.01-0.04,0-0.06c-0.81,0-1.61,0-2.47,0
			c0-0.84,0-1.66,0-2.47c-0.15-0.01-0.29-0.01-0.44-0.01c-1.5,0-3-0.01-4.51,0c-3.43,0.02-6.86,0.04-10.29,0.05
			c-0.76,0-1.53-0.01-2.29-0.01C18.94,45.03,18.11,45.03,17.28,45.03z"/>
		<path class="st2" d="M24.77,47.47c0-0.79,0-1.59,0-2.41c-0.83,0-1.61,0-2.44,0c0,1.6,0,3.18,0,4.77c-0.02,0-0.04,0-0.06,0
			c0-0.75,0-1.5,0-2.27c-0.82,0-1.61,0-2.43,0c0,0.76,0,1.51,0,2.25c-0.02,0-0.04,0-0.06,0c0-0.74,0-1.48,0-2.28
			c-0.83,0-1.63,0-2.44,0c-0.02,0.12-0.05,0.23-0.05,0.35c-0.01,0.7,0,1.41,0,2.13c2.49,0,4.96,0,7.49,0
			C24.77,49.16,24.77,48.31,24.77,47.47z"/>
		<path class="st2" d="M44.75,2.53c0-0.82,0-1.63,0-2.46c-0.03-0.01-0.06-0.03-0.08-0.03c-3.29,0-6.59,0-9.88,0c0,0.8,0,1.6,0,2.41
			c0.14,0.01,0.22,0.02,0.3,0.02c2.37,0,4.73,0,7.1,0c0.82,0,1.63,0.02,2.45,0.04C44.67,2.51,44.71,2.52,44.75,2.53z"/>
		<path class="st4" d="M44.75,2.53c-0.04-0.01-0.08-0.02-0.13-0.03c-0.14,0.01-0.29,0.02-0.43,0.02c-2.3,0-4.6,0.01-6.9,0.01
			c0.01,0.83,0.01,1.67,0.02,2.5c1.62,0,3.24,0,4.87,0c0.86,0,1.72-0.01,2.58-0.02C44.77,5,44.8,5,44.82,4.99
			c0-0.82,0-1.64,0.01-2.46C44.8,2.54,44.78,2.53,44.75,2.53z"/>
		<path class="st2" d="M44.75,5.01c-0.86,0.01-1.72,0.01-2.58,0.02c-1.62,0-3.24,0-4.87,0c0,0,0,0,0,0
			c-0.01,0.82-0.01,1.65-0.02,2.47c0,0-0.01-0.01-0.01-0.01c2.48,0,4.97,0,7.47,0C44.75,6.66,44.75,5.83,44.75,5.01z"/>
		<path class="st2" d="M39.76,47.53c-2.48,0-4.97,0-7.45,0c0,0.82,0,1.63,0,2.47c2.48,0,4.95,0,7.45,0
			C39.76,49.18,39.76,48.36,39.76,47.53z"/>
		<path class="st2" d="M27.24,2.53c-0.82,0-1.63,0-2.49,0c0,0.85,0,1.67,0,2.5c0,0-0.01-0.01-0.01-0.01c0.82,0,1.65,0,2.49,0
			C27.24,4.14,27.24,3.33,27.24,2.53L27.24,2.53z"/>
		<path class="st2" d="M29.75,0.04c-0.82,0-1.63,0-2.48,0c0,0.82,0,1.62,0,2.42c0.81,0,1.63,0,2.48,0
			C29.75,1.63,29.75,0.83,29.75,0.04z"/>
		<path class="st2" d="M44.82,2.54c0,0.82,0,1.64-0.01,2.46c0.8,0,1.6,0,2.42,0c0-0.81,0-1.63,0-2.46
			C46.43,2.54,45.63,2.54,44.82,2.54z"/>
		<path class="st2" d="M32.3,47.47c0-0.8,0-1.59,0-2.41c-0.83,0-1.64,0-2.5,0c0,0.79,0,1.6,0,2.4
			C30.63,47.46,31.47,47.47,32.3,47.47z"/>
		<path class="st2" d="M9.81,25.02c0.02,0.45,0.05,0.9,0.05,1.35c0,0.36-0.03,0.72-0.05,1.08c0.82,0,1.64,0,2.47,0
			c0-0.81,0-1.62,0-2.44C11.45,25.02,10.63,25.02,9.81,25.02z"/>
		<path class="st2" d="M34.73,0.04c-0.81,0-1.63,0-2.44,0c0,0.8,0,1.6,0,2.4c0.85,0,1.63,0,2.44,0C34.73,1.63,34.73,0.83,34.73,0.04
			z"/>
		<path class="st2" d="M32.24,0.04c-0.81,0-1.63,0-2.44,0c0,0.8,0,1.6,0,2.4c0.84,0,1.62,0,2.44,0C32.24,1.63,32.24,0.83,32.24,0.04
			z"/>
		<path class="st2" d="M29.75,47.46c0-0.79,0-1.59,0-2.4c-0.82,0-1.6,0-2.44,0c0,0.8,0,1.6,0,2.4
			C28.12,47.46,28.93,47.46,29.75,47.46z"/>
		<path class="st2" d="M27.25,47.46c0-0.79,0-1.59,0-2.4c-0.82,0-1.6,0-2.44,0c0,0.8,0,1.6,0,2.4
			C25.63,47.46,26.44,47.46,27.25,47.46z"/>
		<path class="st3" d="M32.24,0.04c0,0.79,0,1.59,0,2.4c-0.82,0-1.6,0-2.44,0c0-0.8,0-1.6,0-2.4c-0.02-0.01-0.04-0.01-0.05,0
			c0,0.79,0,1.59,0,2.42c-0.85,0-1.66,0-2.48,0c-0.01,0.02-0.02,0.04-0.03,0.07c0,0,0,0,0,0c3.35,0,6.7,0,10.05,0
			c2.3,0,4.6,0,6.9-0.01c0.15,0,0.29-0.01,0.43-0.02c-0.82-0.01-1.63-0.03-2.45-0.04c-2.37,0-4.73,0-7.1,0
			c-0.08,0-0.16-0.01-0.3-0.02c0-0.8,0-1.61,0-2.41c-0.02-0.01-0.04-0.01-0.05,0c0,0.79,0,1.59,0,2.4c-0.81,0-1.59,0-2.44,0
			c0-0.8,0-1.6,0-2.4C32.28,0.03,32.26,0.03,32.24,0.04z"/>
		<path class="st3" d="M9.81,25.02c0.82,0,1.64,0,2.46,0c0.01-0.02,0.01-0.04,0-0.06c-0.82,0-1.64,0-2.46,0
			C9.8,24.99,9.8,25,9.81,25.02z"/>
		<path class="st3" d="M12.27,27.46c-0.82,0-1.64,0-2.47,0c-0.01,0.02-0.01,0.04,0,0.06c0.82,0,1.64,0,2.46,0
			C12.28,27.5,12.28,27.48,12.27,27.46z"/>
		<path class="st3" d="M9.81,30.01c0.76,0,1.52,0,2.27,0c0-0.02,0-0.04,0-0.06c-0.76,0-1.52,0-2.28,0
			C9.79,29.97,9.79,29.99,9.81,30.01z"/>
		<path class="st5" d="M37.29,37.51c0-7.5,0-14.99,0-22.51c-0.11-0.01-0.21-0.02-0.31-0.02c-4.87,0-9.74,0-14.62,0
			c-0.03,0-0.07,0.01-0.1,0.01c0,0.83,0,1.67,0,2.5c3.33,0,6.66,0,10,0c0,5.85,0,11.66,0,17.51c-4.18,0-8.34,0-12.5,0
			c0,0.84,0.01,1.67,0.01,2.51c2.56,0,5.12,0,7.68,0C30.74,37.5,34.01,37.51,37.29,37.51z"/>
		<path class="st3" d="M19.77,35c4.16,0,8.32,0,12.5,0c0-5.85,0-11.66,0-17.51c-3.34,0-6.67,0-10,0c-1.67,0-3.33,0-5,0
			c0,0.82,0,1.65,0,2.47c0,0,0,0.02,0,0.02c0.06,0,0.11-0.01,0.17-0.01c4.04,0,8.08,0,12.13,0c0.07,0,0.15,0.01,0.23,0.02
			c0,4.18,0,8.34,0,12.52c-0.12,0-0.2,0-0.29,0c-2.41,0-4.83,0.01-7.24,0c-1.66,0-3.32-0.01-4.98-0.02l-0.01,0.02
			c0,0.83,0.01,1.65,0.01,2.48C18.11,35,18.94,35,19.77,35z"/>
		<path class="st5" d="M19.77,45.03c0.76,0,1.53,0.01,2.29,0.01c3.43-0.02,6.86-0.04,10.29-0.05c1.5-0.01,3,0,4.51,0
			c0.15,0,0.29,0.01,0.44,0.01c0-1.67,0-3.35,0-5.02c-5.84,0-11.68,0-17.51,0C19.78,41.66,19.77,43.35,19.77,45.03z"/>
		<path class="st6" d="M37.29,2.53c-3.35,0-6.7,0-10.05,0c0,0.81,0,1.62,0,2.49c-0.84,0-1.67,0-2.49,0c0,1.65,0,3.29,0,5
			c0.24,0,0.44,0,0.63,0c0.52,0,1.03,0,1.55,0c0.11,0,0.21,0.04,0.32,0.06c0.27-0.02,0.53-0.06,0.8-0.06c0.58-0.01,1.16,0,1.77,0
			c0-0.85,0-1.65,0-2.5c0.85,0,1.66,0,2.5,0c0-0.85,0-1.65,0-2.47c1.69,0,3.33,0,4.98,0c0,0,0,0,0,0C37.3,4.2,37.29,3.36,37.29,2.53
			z"/>
		<path class="st7" d="M12.27,27.46c0.01,0.02,0.01,0.04,0,0.06c0,1.65,0,3.29,0,5.01c1.67,0,3.34,0,5,0c0,0,0.01-0.02,0.01-0.02
			c0-0.84,0-1.67,0-2.51c-0.82,0-1.65,0-2.45,0c0-2.52,0-5,0-7.49c0.84,0,1.64,0,2.45,0c0-0.84,0-1.67,0-2.51c0,0,0-0.02,0-0.02
			c-1.65,0-3.31,0-5,0c0,1.69,0,3.35,0,5c0.01,0.02,0.01,0.04,0,0.06C12.27,25.84,12.27,26.65,12.27,27.46z"/>
		<path class="st3" d="M19.78,39.98c5.84,0,11.68,0,17.51,0c0-0.82,0-1.65,0-2.47c-3.28,0-6.56,0-9.83-0.01c-2.56,0-5.12,0-7.68,0
			c0,0,0,0,0,0C19.78,38.33,19.78,39.15,19.78,39.98L19.78,39.98z"/>
		<path class="st4" d="M37.3,5.03c-1.65,0-3.29,0-4.98,0c0,0.82,0,1.62,0,2.47c-0.85,0-1.66,0-2.5,0c0,0.85,0,1.65,0,2.5
			c-0.62,0-1.19-0.01-1.77,0c-0.27,0-0.53,0.04-0.8,0.06c0,0.81,0,1.61,0,2.46c1.68,0,3.34,0,5.04,0c0-0.84,0-1.65,0-2.5
			c0.84,0,1.64,0,2.5,0c0-0.85,0-1.66,0-2.52c0.87,0,1.69,0,2.5,0C37.29,6.68,37.29,5.86,37.3,5.03z"/>
		<path class="st7" d="M17.27,17.49c1.67,0,3.33,0,5,0c0-0.83,0-1.67,0-2.5c-1.66,0-3.32,0-5,0C17.27,15.84,17.27,16.67,17.27,17.49
			z"/>
		<path class="st7" d="M19.77,45.03c0-1.68,0.01-3.37,0.01-5.05c0,0,0,0,0,0c-0.83,0-1.67,0-2.5,0.01c0,1.68,0,3.37,0,5.05
			C18.11,45.03,18.94,45.03,19.77,45.03z"/>
		<path class="st7" d="M19.77,35c-0.83,0-1.66,0-2.49,0.01c0,0.83,0,1.66,0,2.5c0.83,0,1.67,0.01,2.5,0.01c0,0,0,0,0,0
			C19.78,36.67,19.77,35.83,19.77,35z"/>
		<path class="st5" d="M19.78,37.51c-0.83,0-1.67-0.01-2.5-0.01c0,0.83,0,1.66,0,2.48c0.83,0,1.67,0,2.5-0.01
			C19.78,39.15,19.78,38.33,19.78,37.51z"/>
		<path class="st5" d="M17.27,22.5c0-0.84,0-1.67,0-2.51c0.06,0,0.11-0.01,0.17-0.01c4.04,0,8.08,0,12.13,0
			c0.07,0,0.15,0.01,0.23,0.02c0,4.18,0,8.34,0,12.52c-0.12,0-0.2,0-0.29,0c-2.41,0-4.83,0.01-7.24,0c-1.66,0-3.32-0.01-4.98-0.02
			c0-0.84,0-1.67,0-2.51C17.27,27.49,17.27,24.99,17.27,22.5z M27.21,29.99c0-2.49,0-4.98,0-7.48c-0.8,0-1.6,0-2.43,0
			c0,2.49,0,4.97,0,7.48C25.6,29.99,26.39,29.99,27.21,29.99z M19.8,22.5c0,2.49,0,4.98,0,7.48c0.81,0,1.61,0,2.43,0
			c0-2.49,0-4.96,0-7.48C21.42,22.5,20.63,22.5,19.8,22.5z"/>
		<path class="st3" d="M17.27,29.99c0-2.5,0-5,0-7.49c-0.8,0-1.61,0-2.45,0c0,2.5,0,4.98,0,7.49
			C15.62,29.99,16.44,29.99,17.27,29.99z"/>
		<path class="st3" d="M24.79,29.99c0.82,0,1.61,0,2.43,0c0-2.49,0-4.98,0-7.48c-0.8,0-1.6,0-2.43,0
			C24.79,24.99,24.79,27.47,24.79,29.99z"/>
		<path class="st3" d="M22.23,22.5c-0.81,0-1.61,0-2.43,0c0,2.49,0,4.98,0,7.48c0.81,0,1.61,0,2.43,0
			C22.23,27.49,22.23,25.02,22.23,22.5z"/>
	</g>
</g>
</svg>
