<?xml version="1.0" encoding="utf-8"?>
<!-- Generator: Adobe Illustrator 24.1.1, SVG Export Plug-In . SVG Version: 6.00 Build 0)  -->
<svg version="1.1" xmlns="http://www.w3.org/2000/svg" xmlns:xlink="http://www.w3.org/1999/xlink" x="0px" y="0px"
	 viewBox="0 0 200 200" style="enable-background:new 0 0 200 200;" xml:space="preserve">
<style type="text/css">
	.st0{display:none;}
	.st1{display:inline;}
	.st2{fill:#493B3A;}
	.st3{fill:#745D57;}
	.st4{fill:#755C57;}
	.st5{fill:#232121;}
	.st6{fill:#745C57;}
	.st7{fill:#232221;}
	.st8{fill:#725D58;}
	.st9{fill:#FBF6EF;}
	.st10{fill:#745C56;}
	.st11{fill:#F9F7EF;}
	.st12{fill:#3E9E99;}
	.st13{fill:#3D9E99;}
	.st14{fill:#FBF6EE;}
</style>
<g id="_x31_" class="st0">
	<g class="st1">
		<path class="st2" d="M0.2,137.29c0-8.47,0-16.95,0-25.42c3.87,0,7.74,0,11.91,0c-0.23-12.82,0.27-25.07-0.32-37.29
			c-4.27,0-7.93,0-11.59,0c0-3.95,0-7.91,0-11.86c3.87,0,7.73,0,11.9,0c-0.18-4.91,0.21-9.27-0.26-13.56c-4.33,0-7.98,0-11.64,0
			c0-7.91,0-15.82,0-23.73c3.85,0,7.69,0,12.07,0c0-4.83,0-9.18,0-13.69c8.59,0,16.63,0,25.18,0c0-4.04,0-7.89,0-11.74
			c3.95,0,7.9,0,11.85,0c0,3.88,0,7.75,0,11.86c16.88,0,33.18,0,49.48-0.01c0.25,0,0.51-0.13,0.73-0.26
			c0.23-0.14,0.42-0.36,0.59-0.51c0-3.75,0-7.41,0-11.08c12.42,0,24.83,0,37.25,0c0,3.87,0,7.74,0,11.91
			c4.91-0.18,9.26,0.21,13.55-0.26c0-4.33,0-7.99,0-11.65c3.95,0,7.9,0,11.85,0c0,3.84,0,7.68,0,11.86c8.79,0,17.09,0,25.4,0
			c0,10.38-0.08,20.77,0.02,31.15c0.11,10.53-0.46,21.07,0.32,31.56c4.22,0,7.87,0,11.51,0c0,4.52,0,9.04,0,13.56
			c-3.87,0-7.73,0-12.22,0c0.99,4.32-0.43,8.18,0.9,11.86c4.02,0,7.67,0,11.33,0c0,3.95,0,7.91,0,11.86c-3.87,0-7.74,0-11.85,0
			c0,4.76-0.07,8.95,0.02,13.13c0.09,4.11-0.4,8.26,0.3,12.29c4.22,0,7.88,0,11.53,0c0,8.47,0,16.95,0,25.42c-3.86,0-7.71,0-12.07,0
			c0,8.8,0,17.08,0,25.31c-12.7,0.4-24.89-0.3-37.03,0.4c0,4.28,0,7.93,0,11.57c-4.52,0-9.03,0-13.55,0c0-3.88,0-7.75,0-11.86
			c-16.32,0-32.05,0-47.79,0.01c-0.25,0-0.51,0.13-0.73,0.26c-0.23,0.14-0.42,0.36-0.59,0.51c0,3.75,0,7.41,0,11.08
			c-4.52,0-9.03,0-13.55,0c0-3.87,0-7.74,0-12.24c-4.32,0.99-8.17-0.44-11.85,0.9c0,4.02,0,7.68,0,11.34c-8.47,0-16.93,0-25.4,0
			c0-3.84,0-7.68,0-11.86c-8.79,0-17.09,0-25.4,0c0-16.53,0-33.07-0.01-49.6c0-0.24-0.16-0.5-0.31-0.7
			c-0.16-0.21-0.4-0.36-0.61-0.54C7.48,137.29,3.84,137.29,0.2,137.29z M162.75,150.85c4.38,0,8.76,0,13.55,0c0-4.79,0-9.18,0-13.56
			c0-3.87,0-7.74,0-12.17c-4.9,0-9.25,0-13.84,0c0-4.74,0-8.88,0-12.83c-12.52,0-24.74,0-37.23,0c0,4.57,0,8.73,0,13.44
			c-4.62,0-8.96,0-13.26,0c0,4.25,0,7.9,0,11.56c0,4.38,0,8.77,0,13.56c4.79,0,9.17,0,13.55,0c0,3.87,0,7.75,0,11.92
			c12.81-0.23,25.04,0.27,37.25-0.32C162.75,158.17,162.75,154.51,162.75,150.85z M37.45,150.85c0,3.87,0,7.75,0,11.92
			c12.81-0.23,25.04,0.27,37.25-0.32c0-4.27,0-7.93,0-11.6c4.38,0,8.76,0,13.55,0c0-4.79,0-9.18,0-13.56c0-3.87,0-7.74,0-12.17
			c-4.9,0-9.25,0-13.84,0c0-4.74,0-8.88,0-12.83c-12.52,0-24.74,0-37.23,0c0,4.57,0,8.73,0,12.9c-4.57,0.8-9.05-0.53-13.26,0.78
			c0,4,0,7.66,0,11.32c0,4.38,0,8.77,0,13.56C28.69,150.85,33.07,150.85,37.45,150.85z M37.45,74.58c0,4.44,0,8.88,0,13.61
			c12.81-0.22,25.04,0.25,37.25-0.3c0-4.85,0-9.08,0-13.31c4.37,0,8.75,0,13.55,0c0-4.22,0-8.04,0-11.86c0-4.43,0-8.87,0-13.27
			c-4.85-0.85-9.33,0.48-13.84-0.93c0-3.84,0-7.42,0-10.8c-12.52,0-24.74,0-37.24,0c0,4.01,0,7.6,0,11.16
			c-4.56,0.91-9.06-0.56-13.26,0.86c0,4.54,0,8.76,0,12.98c0,3.82,0,7.65,0,11.86C28.7,74.58,33.08,74.58,37.45,74.58z M125.5,74.58
			c0,4.44,0,8.88,0,13.64c12.81-0.32,25.04,0.29,37.25-0.37c0-4.81,0-9.04,0-13.27c4.37,0,8.75,0,13.55,0c0-4.22,0-8.04,0-11.86
			c0-4.43,0-8.87,0-13.27c-4.85-0.85-9.33,0.48-13.84-0.93c0-3.84,0-7.42,0-10.8c-12.52,0-24.74,0-37.24,0c0,4.01,0,7.6,0,11.16
			c-4.56,0.91-9.06-0.56-13.26,0.86c0,4.54,0,8.76,0,12.98c0,3.82,0,7.65,0,11.86C116.75,74.58,121.12,74.58,125.5,74.58z"/>
		<path class="st3" d="M150.9,200c0-3.64,0-7.29,0-11.57c12.14-0.7,24.33,0,37.03-0.4c0-8.23,0-16.51,0-25.31c4.36,0,8.22,0,12.07,0
			c0,12.3,0,24.6,0,37.29C183.34,200,167.12,200,150.9,200z"/>
		<path class="st4" d="M200,74.58c-3.64,0-7.29,0-11.51,0c-0.78-10.49-0.21-21.04-0.32-31.56c-0.11-10.38-0.02-20.76-0.02-31.15
			c3.95,0,7.9,0,11.85,0C200,32.77,200,53.67,200,74.58z"/>
		<path class="st5" d="M37.45,0c0,3.85,0,7.7,0,11.74c-8.55,0-16.59,0-25.18,0c0,4.51,0,8.85,0,13.69c-4.37,0-8.22,0-12.07,0
			c0-8.35,0-16.69,0-25.42C12.92,0,25.18,0,37.45,0z"/>
		<path class="st5" d="M100.1,0c0,3.67,0,7.33,0,11.08c-0.17,0.15-0.35,0.37-0.59,0.51c-0.22,0.13-0.48,0.26-0.73,0.26
			c-16.3,0.01-32.6,0.01-49.48,0.01c0-4.11,0-7.99,0-11.86C66.24,0,83.17,0,100.1,0z"/>
		<path class="st5" d="M0.2,137.29c3.64,0,7.28,0,10.92,0c0.21,0.18,0.45,0.33,0.61,0.54c0.15,0.2,0.31,0.47,0.31,0.7
			c0.01,16.53,0.01,33.07,0.01,49.6c-3.95,0-7.9,0-11.85,0C0.2,171.19,0.2,154.24,0.2,137.29z"/>
		<path class="st3" d="M88.25,200c0-3.66,0-7.33,0-11.08c0.16-0.15,0.35-0.37,0.59-0.51c0.22-0.13,0.48-0.26,0.73-0.26
			c15.74-0.01,31.47-0.01,47.79-0.01c0,4.11,0,7.99,0,11.86C120.98,200,104.62,200,88.25,200z"/>
		<path class="st5" d="M200,11.86c-3.95,0-7.9,0-11.85,0c-8.31,0-16.61,0-25.4,0c0-4.18,0-8.02,0-11.86C175,0,187.24,0,200,0
			C200,4.16,200,8.01,200,11.86z"/>
		<path class="st5" d="M0.2,74.58c3.66,0,7.32,0,11.59,0c0.59,12.22,0.09,24.47,0.32,37.29c-4.16,0-8.03,0-11.91,0
			C0.2,99.44,0.2,87.01,0.2,74.58z"/>
		<path class="st3" d="M0.2,188.14c3.95,0,7.9,0,11.85,0c8.31,0,16.61,0,25.4,0c0,4.18,0,8.02,0,11.86c-12.25,0-24.49,0-37.25,0
			C0.2,195.84,0.2,191.99,0.2,188.14z"/>
		<path class="st4" d="M200,137.29c-3.66,0-7.32,0-11.53,0c-0.7-4.03-0.22-8.18-0.3-12.29c-0.09-4.19-0.02-8.38-0.02-13.13
			c4.11,0,7.98,0,11.85,0C200,120.34,200,128.81,200,137.29z"/>
		<path class="st5" d="M150.9,0c0,3.66,0,7.32,0,11.65c-4.28,0.47-8.64,0.09-13.55,0.26c0-4.17,0-8.04,0-11.91
			C141.87,0,146.38,0,150.9,0z"/>
		<path class="st5" d="M0.2,49.15c3.65,0,7.31,0,11.64,0c0.47,4.29,0.09,8.65,0.26,13.56c-4.17,0-8.04,0-11.9,0
			C0.2,58.19,0.2,53.67,0.2,49.15z"/>
		<path class="st3" d="M200,100c-3.65,0-7.31,0-11.33,0c-1.33-3.69,0.09-7.54-0.9-11.86c4.49,0,8.36,0,12.22,0
			C200,92.09,200,96.05,200,100z"/>
		<path class="st3" d="M62.85,200c0-3.66,0-7.31,0-11.34c3.68-1.33,7.53,0.09,11.85-0.9c0,4.5,0,8.37,0,12.24
			C70.75,200,66.8,200,62.85,200z"/>
		<path class="st5" d="M111.95,137.29c0-3.66,0-7.32,0-11.56c4.3,0,8.65,0,13.26,0c0-4.71,0-8.86,0-13.44c12.49,0,24.71,0,37.23,0
			c0,3.95,0,8.09,0,12.83c4.6,0,8.95,0,13.84,0c0,4.43,0,8.3,0,12.17c-4.38,0-8.76,0-13.55,0c0,4.79,0,9.18,0,13.56
			c-12.42,0-24.83,0-37.25,0c0-4.38,0-8.77,0-13.56C120.71,137.29,116.33,137.29,111.95,137.29z"/>
		<path class="st5" d="M23.91,137.29c0-3.66,0-7.32,0-11.32c4.21-1.31,8.7,0.01,13.26-0.78c0-4.17,0-8.32,0-12.9
			c12.49,0,24.71,0,37.23,0c0,3.95,0,8.09,0,12.83c4.6,0,8.95,0,13.84,0c0,4.43,0,8.3,0,12.17c-4.38,0-8.76,0-13.55,0
			c0,4.79,0,9.18,0,13.56c-12.42,0-24.83,0-37.25,0c0-4.38,0-8.77,0-13.56C32.66,137.29,28.28,137.29,23.91,137.29z"/>
		<path class="st5" d="M23.91,62.71c0-4.22,0-8.44,0-12.98c4.2-1.42,8.7,0.05,13.26-0.86c0-3.56,0-7.15,0-11.16
			c12.49,0,24.71,0,37.24,0c0,3.38,0,6.97,0,10.8c4.51,1.4,9,0.08,13.84,0.93c0,4.41,0,8.84,0,13.27c-4.37,0-8.75,0-13.55,0
			c0,4.22,0,8.04,0,11.86c-12.42,0-24.83,0-37.25,0c0-3.82,0-7.65,0-11.86C32.65,62.71,28.28,62.71,23.91,62.71z"/>
		<path class="st5" d="M111.95,62.71c0-4.22,0-8.44,0-12.98c4.2-1.42,8.7,0.05,13.26-0.86c0-3.56,0-7.15,0-11.16
			c12.49,0,24.71,0,37.24,0c0,3.38,0,6.97,0,10.8c4.51,1.4,9,0.08,13.84,0.93c0,4.41,0,8.84,0,13.27c-4.37,0-8.75,0-13.55,0
			c0,4.22,0,8.04,0,11.86c-12.42,0-24.83,0-37.25,0c0-3.82,0-7.65,0-11.86C120.7,62.71,116.33,62.71,111.95,62.71z"/>
		<path class="st3" d="M125.5,74.58c12.42,0,24.83,0,37.25,0c0,4.23,0,8.46,0,13.27c-12.21,0.66-24.45,0.05-37.25,0.37
			C125.5,83.45,125.5,79.01,125.5,74.58z"/>
		<path class="st3" d="M37.45,74.58c12.42,0,24.83,0,37.25,0c0,4.23,0,8.46,0,13.31c-12.21,0.56-24.44,0.08-37.25,0.3
			C37.45,83.45,37.45,79.01,37.45,74.58z"/>
		<path class="st4" d="M37.45,150.85c12.42,0,24.83,0,37.25,0c0,3.66,0,7.33,0,11.6c-12.21,0.59-24.44,0.09-37.25,0.32
			C37.45,158.6,37.45,154.72,37.45,150.85z"/>
		<path class="st4" d="M125.5,150.85c12.42,0,24.83,0,37.25,0c0,3.66,0,7.33,0,11.6c-12.21,0.59-24.44,0.09-37.25,0.32
			C125.5,158.6,125.5,154.72,125.5,150.85z"/>
		<ellipse class="st3" cx="30.68" cy="144.07" rx="9.58" ry="9.59"/>
		<ellipse class="st3" cx="81.47" cy="144.07" rx="9.58" ry="9.59"/>
		<ellipse class="st4" cx="118.73" cy="144.07" rx="9.58" ry="9.59"/>
		<ellipse class="st4" cx="169.52" cy="144.07" rx="9.58" ry="9.59"/>
		<path class="st3" d="M23.91,62.71c4.37,0,8.75,0,13.55,0c0,4.22,0,8.04,0,11.86c-4.37,0-8.75,0-13.55,0
			C23.91,70.36,23.91,66.53,23.91,62.71z"/>
		<path class="st4" d="M162.75,74.58c0-3.82,0-7.65,0-11.86c4.8,0,9.17,0,13.55,0c0,3.82,0,7.65,0,11.86
			C171.5,74.58,167.12,74.58,162.75,74.58z"/>
		<path class="st3" d="M111.95,62.71c4.37,0,8.75,0,13.55,0c0,4.22,0,8.04,0,11.86c-4.37,0-8.75,0-13.55,0
			C111.95,70.36,111.95,66.53,111.95,62.71z"/>
		<path class="st3" d="M74.7,74.58c0-3.82,0-7.65,0-11.86c4.8,0,9.17,0,13.55,0c0,3.82,0,7.65,0,11.86
			C83.45,74.58,79.08,74.58,74.7,74.58z"/>
	</g>
</g>
<g id="_x32_" class="st0">
	<g class="st1">
		<path class="st2" d="M200,74.58c0,4.52,0,9.04,0,13.56c-3.88,0-7.75,0-12.09,0c0.54,4.34-0.28,8.16,0.61,11.86
			c4.16,0,7.82,0,11.48,0c0,3.95,0,7.91,0,11.86c-3.88,0-7.76,0-11.89,0c0,4.76-0.07,8.95,0.02,13.13c0.09,4.11-0.4,8.26,0.3,12.29
			c4.23,0,7.9,0,11.57,0c0,8.47,0,16.95,0,25.42c-3.87,0-7.73,0-12.11,0c0,8.8,0,17.08,0,25.31c-12.73,0.4-24.97-0.3-37.14,0.4
			c0,4.28,0,7.93,0,11.57c-4.53,0-9.06,0-13.59,0c0-3.88,0-7.75,0-11.86c-16.36,0-32.15,0-47.93,0.01c-0.25,0-0.51,0.13-0.73,0.26
			c-0.24,0.14-0.42,0.36-0.59,0.51c0,3.75,0,7.41,0,11.08c-4.53,0-9.06,0-13.59,0c0-3.87,0-7.74,0-12.07
			c-4.35,0.54-8.18-0.28-11.89,0.61c0,4.15,0,7.8,0,11.46c-8.49,0-16.98,0-25.47,0c0-3.84,0-7.68,0-11.86c-8.81,0-17.14,0-25.47,0
			c0-16.53,0-33.07-0.01-49.6c0-0.24-0.16-0.5-0.31-0.7c-0.16-0.21-0.4-0.36-0.61-0.54c-3.65,0-7.3,0-10.95,0
			c0-8.47,0-16.95,0-25.42c3.88,0,7.77,0,11.94,0c-0.23-12.82,0.27-25.07-0.32-37.29c-4.28,0-7.95,0-11.62,0c0-3.95,0-7.91,0-11.86
			c3.88,0,7.76,0,11.94,0c-0.18-4.91,0.21-9.27-0.27-13.56c-4.34,0-8.01,0-11.67,0c0-7.91,0-15.82,0-23.73c3.86,0,7.72,0,12.1,0
			c0-4.83,0-9.18,0-13.69c8.62,0,16.68,0,25.26,0c0-4.04,0-7.89,0-11.74c3.96,0,7.93,0,11.89,0c0,3.88,0,7.75,0,11.86
			c16.93,0,33.28,0,49.63-0.01c0.25,0,0.51-0.13,0.73-0.26c0.24-0.14,0.42-0.36,0.59-0.51c0-3.75,0-7.41,0-11.08
			c12.45,0,24.91,0,37.36,0c0,3.87,0,7.74,0,11.91c4.92-0.18,9.29,0.21,13.59-0.26c0-4.33,0-7.99,0-11.65c3.96,0,7.93,0,11.89,0
			c0,3.84,0,7.68,0,11.86c8.81,0,17.14,0,25.47,0c0,10.38-0.08,20.77,0.02,31.15c0.11,10.53-0.46,21.07,0.32,31.56
			C192.69,74.58,196.34,74.58,200,74.58z M162.64,150.85c4.39,0,8.78,0,13.59,0c0-4.79,0-9.18,0-13.56c0-3.87,0-7.74,0-12.17
			c-4.91,0-9.27,0-13.89,0c0-4.74,0-8.88,0-12.83c-12.56,0-24.82,0-37.35,0c0,4.57,0,8.73,0,13.44c-4.63,0-8.99,0-13.3,0
			c0,4.25,0,7.9,0,11.56c0,4.38,0,8.77,0,13.56c4.8,0,9.19,0,13.59,0c0,3.87,0,7.75,0,11.92c12.85-0.23,25.12,0.27,37.36-0.32
			C162.64,158.17,162.64,154.51,162.64,150.85z M74.33,150.85c4.39,0,8.78,0,13.59,0c0-4.79,0-9.18,0-13.56c0-3.87,0-7.74,0-12.17
			c-4.91,0-9.27,0-13.89,0c0-4.74,0-8.88,0-12.83c-12.56,0-24.82,0-37.35,0c0,4.57,0,8.73,0,13.44c-4.63,0-8.99,0-13.3,0
			c0,4.25,0,7.9,0,11.56c0,4.38,0,8.77,0,13.56c4.8,0,9.19,0,13.59,0c0,3.87,0,7.75,0,11.92c12.85-0.23,25.12,0.27,37.36-0.32
			C74.33,158.17,74.33,154.51,74.33,150.85z M74.33,74.58c4.39,0,8.78,0,13.59,0c0-4.22,0-8.04,0-11.86c0-4.43,0-8.87,0-13.27
			c-4.86-0.85-9.36,0.48-13.89-0.93c0-3.84,0-7.42,0-10.8c-12.56,0-24.82,0-37.35,0c0,4.01,0,7.6,0,11.16
			c-4.58,0.91-9.08-0.56-13.3,0.86c0,4.54,0,8.76,0,12.98c0,3.82,0,7.65,0,11.86c4.81,0,9.2,0,13.59,0c0,4.44,0,8.88,0,13.64
			c12.84-0.32,25.12,0.29,37.36-0.37C74.33,83.03,74.33,78.8,74.33,74.58z M162.64,74.58c4.39,0,8.78,0,13.59,0
			c0-4.22,0-8.04,0-11.86c0-4.43,0-8.87,0-13.27c-4.86-0.85-9.36,0.48-13.89-0.93c0-3.84,0-7.42,0-10.8c-12.56,0-24.82,0-37.35,0
			c0,4.01,0,7.6,0,11.16c-4.58,0.91-9.08-0.56-13.3,0.86c0,4.54,0,8.76,0,12.98c0,3.82,0,7.65,0,11.86c4.81,0,9.2,0,13.59,0
			c0,4.44,0,8.88,0,13.64c12.84-0.32,25.12,0.29,37.36-0.37C162.64,83.03,162.64,78.8,162.64,74.58z"/>
		<path class="st6" d="M150.75,200c0-3.64,0-7.29,0-11.57c12.17-0.7,24.41,0,37.14-0.4c0-8.23,0-16.51,0-25.31
			c4.38,0,8.24,0,12.11,0c0,12.3,0,24.6,0,37.29C183.29,200,167.02,200,150.75,200z"/>
		<path class="st6" d="M200,74.58c-3.66,0-7.31,0-11.55,0c-0.78-10.49-0.21-21.04-0.32-31.56c-0.11-10.38-0.02-20.76-0.02-31.15
			c3.96,0,7.93,0,11.89,0C200,32.77,200,53.67,200,74.58z"/>
		<path class="st7" d="M36.96,0c0,3.85,0,7.7,0,11.74c-8.58,0-16.64,0-25.26,0c0,4.51,0,8.85,0,13.69c-4.39,0-8.24,0-12.1,0
			c0-8.35,0-16.69,0-25.42C12.36,0,24.66,0,36.96,0z"/>
		<path class="st7" d="M99.8,0c0,3.67,0,7.33,0,11.08c-0.17,0.15-0.35,0.37-0.59,0.51c-0.22,0.13-0.49,0.26-0.73,0.26
			c-16.35,0.01-32.7,0.01-49.63,0.01c0-4.11,0-7.99,0-11.86C65.83,0,82.82,0,99.8,0z"/>
		<path class="st7" d="M-0.4,137.29c3.65,0,7.3,0,10.95,0c0.21,0.18,0.45,0.33,0.61,0.54c0.15,0.2,0.31,0.47,0.31,0.7
			c0.01,16.53,0.01,33.07,0.01,49.6c-3.96,0-7.93,0-11.89,0C-0.4,171.19-0.4,154.24-0.4,137.29z"/>
		<path class="st6" d="M87.91,200c0-3.66,0-7.33,0-11.08c0.16-0.15,0.35-0.37,0.59-0.51c0.22-0.13,0.49-0.26,0.73-0.26
			c15.78-0.01,31.57-0.01,47.93-0.01c0,4.11,0,7.99,0,11.86C120.75,200,104.33,200,87.91,200z"/>
		<path class="st7" d="M200,11.86c-3.96,0-7.93,0-11.89,0c-8.33,0-16.66,0-25.47,0c0-4.18,0-8.02,0-11.86C174.92,0,187.2,0,200,0
			C200,4.16,200,8.01,200,11.86z"/>
		<path class="st7" d="M-0.4,74.58c3.67,0,7.34,0,11.62,0c0.59,12.22,0.09,24.47,0.32,37.29c-4.18,0-8.06,0-11.94,0
			C-0.4,99.44-0.4,87.01-0.4,74.58z"/>
		<path class="st6" d="M-0.4,188.14c3.96,0,7.93,0,11.89,0c8.33,0,16.66,0,25.47,0c0,4.18,0,8.02,0,11.86c-12.28,0-24.57,0-37.36,0
			C-0.4,195.84-0.4,191.99-0.4,188.14z"/>
		<path class="st6" d="M200,137.29c-3.67,0-7.34,0-11.57,0c-0.7-4.03-0.22-8.18-0.3-12.29c-0.09-4.19-0.02-8.38-0.02-13.13
			c4.13,0,8.01,0,11.89,0C200,120.34,200,128.81,200,137.29z"/>
		<path class="st7" d="M150.75,0c0,3.66,0,7.32,0,11.65c-4.3,0.47-8.66,0.09-13.59,0.26c0-4.17,0-8.04,0-11.91
			C141.69,0,146.22,0,150.75,0z"/>
		<path class="st7" d="M-0.4,49.15c3.66,0,7.33,0,11.67,0c0.47,4.29,0.09,8.65,0.27,13.56c-4.18,0-8.06,0-11.94,0
			C-0.4,58.19-0.4,53.67-0.4,49.15z"/>
		<path class="st6" d="M200,100c-3.66,0-7.33,0-11.48,0c-0.88-3.7-0.06-7.53-0.61-11.86c4.34,0,8.21,0,12.09,0
			C200,92.09,200,96.05,200,100z"/>
		<path class="st8" d="M62.44,200c0-3.66,0-7.31,0-11.46c3.71-0.88,7.54-0.06,11.89-0.61c0,4.33,0,8.2,0,12.07
			C70.36,200,66.4,200,62.44,200z"/>
		<path class="st7" d="M23.38,62.71c0-4.22,0-8.44,0-12.98c4.22-1.42,8.73,0.05,13.3-0.86c0-3.56,0-7.15,0-11.16
			c12.53,0,24.79,0,37.35,0c0,3.38,0,6.97,0,10.8c4.53,1.4,9.02,0.08,13.89,0.93c0,4.41,0,8.84,0,13.27c-4.39,0-8.78,0-13.59,0
			c0,4.22,0,8.04,0,11.86c-3.96,0-7.93,0-11.89,0c0-3.87,0-7.74,0-11.91c-4.92,0.18-9.29-0.21-13.59,0.26c0,4.33,0,7.99,0,11.65
			c-3.96,0-7.93,0-11.89,0c0-3.82,0-7.65,0-11.86C32.15,62.71,27.76,62.71,23.38,62.71z"/>
		<path class="st7" d="M111.69,62.71c0-4.22,0-8.44,0-12.98c4.22-1.42,8.73,0.05,13.3-0.86c0-3.56,0-7.15,0-11.16
			c12.53,0,24.79,0,37.35,0c0,3.38,0,6.97,0,10.8c4.53,1.4,9.02,0.08,13.89,0.93c0,4.41,0,8.84,0,13.27c-4.39,0-8.78,0-13.59,0
			c0,4.22,0,8.04,0,11.86c-3.96,0-7.93,0-11.89,0c0-3.87,0-7.74,0-11.91c-4.92,0.18-9.29-0.21-13.59,0.26c0,4.33,0,7.99,0,11.65
			c-3.96,0-7.93,0-11.89,0c0-3.82,0-7.65,0-11.86C120.46,62.71,116.08,62.71,111.69,62.71z"/>
		<path class="st7" d="M111.69,137.29c0-3.66,0-7.32,0-11.56c4.31,0,8.68,0,13.3,0c0-4.71,0-8.86,0-13.44c12.53,0,24.78,0,37.35,0
			c0,3.95,0,8.09,0,12.83c4.61,0,8.97,0,13.89,0c0,4.43,0,8.3,0,12.17c-4.39,0-8.78,0-13.59,0c0,4.79,0,9.18,0,13.56
			c-3.96,0-7.93,0-11.89,0c0-4.43,0-8.87,0-13.61c-4.92,0.18-9.29-0.21-13.59,0.27c0,4.9,0,9.12,0,13.34c-3.96,0-7.93,0-11.89,0
			c0-4.38,0-8.77,0-13.56C120.47,137.29,116.08,137.29,111.69,137.29z"/>
		<path class="st7" d="M23.38,137.29c0-3.66,0-7.32,0-11.56c4.31,0,8.68,0,13.3,0c0-4.71,0-8.86,0-13.44c12.53,0,24.78,0,37.35,0
			c0,3.95,0,8.09,0,12.83c4.61,0,8.97,0,13.89,0c0,4.43,0,8.3,0,12.17c-4.39,0-8.78,0-13.59,0c0,4.79,0,9.18,0,13.56
			c-3.96,0-7.93,0-11.89,0c0-4.43,0-8.87,0-13.61c-4.92,0.18-9.29-0.21-13.59,0.27c0,4.9,0,9.12,0,13.34c-3.96,0-7.93,0-11.89,0
			c0-4.38,0-8.77,0-13.56C32.16,137.29,27.77,137.29,23.38,137.29z"/>
		<path class="st6" d="M125.27,74.58c3.96,0,7.93,0,11.89,0c4.53,0,9.06,0,13.59,0c3.96,0,7.93,0,11.89,0c0,4.23,0,8.46,0,13.27
			c-12.24,0.66-24.52,0.05-37.36,0.37C125.27,83.45,125.27,79.01,125.27,74.58z"/>
		<path class="st6" d="M62.44,74.58c3.96,0,7.93,0,11.89,0c0,4.23,0,8.46,0,13.27c-12.24,0.66-24.52,0.05-37.36,0.37
			c0-4.76,0-9.2,0-13.64c3.96,0,7.93,0,11.89,0C53.38,74.58,57.91,74.58,62.44,74.58z"/>
		<path class="st6" d="M36.96,150.85c3.96,0,7.93,0,11.89,0c4.53,0,9.06,0,13.59,0c3.96,0,7.93,0,11.89,0c0,3.66,0,7.33,0,11.6
			c-12.24,0.59-24.52,0.09-37.36,0.32C36.96,158.6,36.96,154.72,36.96,150.85z"/>
		<path class="st6" d="M125.27,150.85c3.96,0,7.93,0,11.89,0c4.53,0,9.06,0,13.59,0c3.96,0,7.93,0,11.89,0c0,3.66,0,7.33,0,11.6
			c-12.24,0.59-24.52,0.09-37.36,0.32C125.27,158.6,125.27,154.72,125.27,150.85z"/>
		<ellipse class="st8" cx="30.17" cy="144.07" rx="9.61" ry="9.59"/>
		<ellipse class="st8" cx="81.12" cy="144.07" rx="9.61" ry="9.59"/>
		<ellipse class="st8" cx="118.48" cy="144.07" rx="9.61" ry="9.59"/>
		<ellipse class="st8" cx="169.43" cy="144.07" rx="9.61" ry="9.59"/>
		<path class="st8" d="M23.38,62.71c4.39,0,8.78,0,13.59,0c0,4.22,0,8.04,0,11.86c-4.39,0-8.78,0-13.59,0
			C23.38,70.36,23.38,66.53,23.38,62.71z"/>
		<path class="st8" d="M74.33,74.58c0-3.82,0-7.65,0-11.86c4.81,0,9.2,0,13.59,0c0,3.82,0,7.65,0,11.86
			C83.1,74.58,78.71,74.58,74.33,74.58z"/>
		<path class="st8" d="M162.64,74.58c0-3.82,0-7.65,0-11.86c4.81,0,9.2,0,13.59,0c0,3.82,0,7.65,0,11.86
			C171.41,74.58,167.02,74.58,162.64,74.58z"/>
		<path class="st8" d="M111.69,62.71c4.39,0,8.78,0,13.59,0c0,4.22,0,8.04,0,11.86c-4.39,0-8.78,0-13.59,0
			C111.69,70.36,111.69,66.53,111.69,62.71z"/>
		<path class="st9" d="M62.44,74.58c-4.53,0-9.06,0-13.59,0c0-3.66,0-7.32,0-11.65c4.3-0.47,8.66-0.09,13.59-0.26
			C62.44,66.84,62.44,70.71,62.44,74.58z"/>
		<path class="st9" d="M150.75,74.58c-4.53,0-9.06,0-13.59,0c0-3.66,0-7.32,0-11.65c4.3-0.47,8.66-0.09,13.59-0.26
			C150.75,66.84,150.75,70.71,150.75,74.58z"/>
		<path class="st9" d="M150.75,150.85c-4.53,0-9.06,0-13.59,0c0-4.22,0-8.44,0-13.34c4.3-0.47,8.66-0.09,13.59-0.27
			C150.75,141.98,150.75,146.41,150.75,150.85z"/>
		<path class="st9" d="M62.44,150.85c-4.53,0-9.06,0-13.59,0c0-4.22,0-8.44,0-13.34c4.3-0.47,8.66-0.09,13.59-0.27
			C62.44,141.98,62.44,146.41,62.44,150.85z"/>
	</g>
</g>
<g id="_x33_">
	<g>
		<path class="st2" d="M0,137.29c0-8.47,0-16.95,0-25.42c3.87,0,7.75,0,11.92,0c-0.23-12.82,0.27-25.07-0.32-37.29
			c-4.27,0-7.93,0-11.6,0c0-3.95,0-7.91,0-11.86c3.87,0,7.74,0,11.91,0c-0.18-4.91,0.21-9.27-0.26-13.56c-4.33,0-7.99,0-11.65,0
			c0-7.91,0-15.82,0-23.73c3.85,0,7.7,0,12.08,0c0-4.83,0-9.18,0-13.69c8.6,0,16.65,0,25.21,0c0-4.04,0-7.89,0-11.74
			c3.95,0,7.91,0,11.86,0c0,3.88,0,7.75,0,11.86c16.9,0,33.21,0,49.53-0.01c0.25,0,0.51-0.13,0.73-0.26
			c0.23-0.14,0.42-0.36,0.59-0.51c0-3.75,0-7.41,0-11.08c12.43,0,24.86,0,37.29,0c0,3.87,0,7.74,0,11.91
			c4.91-0.18,9.27,0.21,13.56-0.26c0-4.33,0-7.99,0-11.65c3.95,0,7.91,0,11.86,0c0,3.84,0,7.68,0,11.86c8.8,0,17.11,0,25.42,0
			c0,10.38-0.08,20.77,0.02,31.15c0.11,10.53-0.46,21.07,0.32,31.56c4.23,0,7.87,0,11.52,0c0,4.52,0,9.04,0,13.56
			c-3.87,0-7.74,0-12.07,0c0.54,4.34-0.28,8.16,0.61,11.86c4.15,0,7.8,0,11.46,0c0,3.95,0,7.91,0,11.86c-3.87,0-7.75,0-11.86,0
			c0,4.76-0.07,8.95,0.02,13.13c0.09,4.11-0.4,8.26,0.3,12.29c4.22,0,7.88,0,11.54,0c0,8.47,0,16.95,0,25.42c-3.86,0-7.72,0-12.09,0
			c0,8.8,0,17.08,0,25.31c-12.71,0.4-24.92-0.3-37.07,0.4c0,4.28,0,7.93,0,11.57c-4.52,0-9.04,0-13.56,0c0-3.88,0-7.75,0-11.86
			c-16.33,0-32.08,0-47.83,0.01c-0.25,0-0.51,0.13-0.73,0.26c-0.24,0.14-0.42,0.36-0.59,0.51c0,3.75,0,7.41,0,11.08
			c-4.52,0-9.04,0-13.56,0c0-3.87,0-7.74,0-12.07c-4.34,0.54-8.16-0.28-11.86,0.61c0,4.15,0,7.8,0,11.46c-8.47,0-16.95,0-25.42,0
			c0-3.84,0-7.68,0-11.86c-8.8,0-17.11,0-25.42,0c0-16.53,0-33.07-0.01-49.6c0-0.24-0.16-0.5-0.31-0.7
			c-0.16-0.21-0.4-0.36-0.61-0.54C7.29,137.29,3.64,137.29,0,137.29z M125.42,150.85c0,3.87,0,7.75,0,11.92
			c12.82-0.23,25.07,0.27,37.29-0.32c0-4.27,0-7.93,0-11.6c4.38,0,8.77,0,13.56,0c0-4.79,0-9.18,0-13.56c0-3.84,0-7.69,0-12.05
			c-4.81,0-9.14,0-13.67,0c0-4.66,0-8.78,0-13.38c-4.06,0-7.91,0-11.75,0c-4.52,0-9.04,0-13.56,0c-3.84,0-7.69,0-12.05,0
			c0,4.81,0,9.14,0,13.67c-4.66,0-8.78,0-13.38,0c0,4.06,0,7.91,0,11.75c0,4.38,0,8.77,0,13.56
			C116.66,150.85,121.04,150.85,125.42,150.85z M74.58,150.85c4.38,0,8.77,0,13.56,0c0-4.79,0-9.18,0-13.56c0-3.84,0-7.69,0-12.05
			c-4.81,0-9.14,0-13.67,0c0-4.66,0-8.78,0-13.38c-4.06,0-7.91,0-11.75,0c-4.52,0-9.04,0-13.56,0c-3.84,0-7.69,0-12.05,0
			c0,4.81,0,9.14,0,13.67c-4.66,0-8.78,0-13.38,0c0,4.06,0,7.91,0,11.75c0,4.38,0,8.77,0,13.56c4.79,0,9.18,0,13.56,0
			c0,3.87,0,7.75,0,11.92c12.82-0.23,25.07,0.27,37.29-0.32C74.58,158.17,74.58,154.51,74.58,150.85z M150.85,37.29
			c-4.52,0-9.04,0-13.56,0c-3.84,0-7.69,0-12.05,0c0,4.25,0,8.02,0,11.99c-4.66,0-8.79,0-13.37,0c0,4.63,0,9.03,0,13.43
			c0,3.82,0,7.65,0,11.86c4.8,0,9.18,0,13.56,0c0,4.44,0,8.88,0,13.64c12.82-0.32,25.07,0.29,37.29-0.37c0-4.81,0-9.04,0-13.27
			c4.38,0,8.76,0,13.56,0c0-4.22,0-8.04,0-11.86c0-4.4,0-8.8,0-13.73c-4.79,0-9.13,0-13.67,0c0-4.1,0-7.66,0-11.7
			C158.53,37.29,154.69,37.29,150.85,37.29z M62.71,37.29c-4.52,0-9.04,0-13.56,0c-3.84,0-7.69,0-12.05,0c0,4.25,0,8.02,0,11.99
			c-4.66,0-8.79,0-13.37,0c0,4.63,0,9.03,0,13.43c0,3.82,0,7.65,0,11.86c4.8,0,9.18,0,13.56,0c0,4.44,0,8.88,0,13.64
			c12.82-0.32,25.07,0.29,37.29-0.37c0-4.81,0-9.04,0-13.27c4.38,0,8.76,0,13.56,0c0-4.22,0-8.04,0-11.86c0-4.4,0-8.8,0-13.73
			c-4.79,0-9.13,0-13.67,0c0-4.1,0-7.66,0-11.7C70.4,37.29,66.56,37.29,62.71,37.29z"/>
		<path class="st10" d="M150.85,200c0-3.64,0-7.29,0-11.57c12.15-0.7,24.36,0,37.07-0.4c0-8.23,0-16.51,0-25.31
			c4.37,0,8.23,0,12.09,0c0,12.3,0,24.6,0,37.29C183.32,200,167.08,200,150.85,200z"/>
		<path class="st10" d="M200,74.58c-3.65,0-7.3,0-11.52,0c-0.78-10.49-0.21-21.04-0.32-31.56c-0.11-10.38-0.02-20.76-0.02-31.15
			c3.95,0,7.91,0,11.86,0C200,32.77,200,53.67,200,74.58z"/>
		<path class="st7" d="M37.29,0c0,3.85,0,7.7,0,11.74c-8.56,0-16.61,0-25.21,0c0,4.51,0,8.85,0,13.69c-4.38,0-8.23,0-12.08,0
			C0,17.08,0,8.73,0,0C12.73,0,25.01,0,37.29,0z"/>
		<path class="st7" d="M100,0c0,3.67,0,7.33,0,11.08c-0.17,0.15-0.35,0.37-0.59,0.51c-0.22,0.13-0.48,0.26-0.73,0.26
			c-16.32,0.01-32.63,0.01-49.53,0.01c0-4.11,0-7.99,0-11.86C66.1,0,83.05,0,100,0z"/>
		<path class="st7" d="M0,137.29c3.64,0,7.29,0,10.93,0c0.21,0.18,0.45,0.33,0.61,0.54c0.15,0.2,0.31,0.47,0.31,0.7
			c0.01,16.53,0.01,33.07,0.01,49.6c-3.95,0-7.91,0-11.86,0C0,171.19,0,154.24,0,137.29z"/>
		<path class="st10" d="M88.14,200c0-3.66,0-7.33,0-11.08c0.16-0.15,0.35-0.37,0.59-0.51c0.22-0.13,0.48-0.26,0.73-0.26
			c15.75-0.01,31.5-0.01,47.83-0.01c0,4.11,0,7.99,0,11.86C120.9,200,104.52,200,88.14,200z"/>
		<path class="st10" d="M0,188.14c3.95,0,7.91,0,11.86,0c8.31,0,16.63,0,25.42,0c0,4.18,0,8.02,0,11.86c-12.26,0-24.52,0-37.29,0
			C0,195.84,0,191.99,0,188.14z"/>
		<path class="st7" d="M0,74.58c3.66,0,7.33,0,11.6,0c0.59,12.22,0.09,24.47,0.32,37.29c-4.17,0-8.04,0-11.92,0
			C0,99.44,0,87.01,0,74.58z"/>
		<path class="st7" d="M200,11.86c-3.95,0-7.91,0-11.86,0c-8.31,0-16.63,0-25.42,0c0-4.18,0-8.02,0-11.86c12.26,0,24.52,0,37.29,0
			C200,4.16,200,8.01,200,11.86z"/>
		<path class="st10" d="M200,137.29c-3.66,0-7.32,0-11.54,0c-0.7-4.03-0.22-8.18-0.3-12.29c-0.09-4.19-0.02-8.38-0.02-13.13
			c4.12,0,7.99,0,11.86,0C200,120.34,200,128.81,200,137.29z"/>
		<path class="st7" d="M150.85,0c0,3.66,0,7.32,0,11.65c-4.29,0.47-8.65,0.09-13.56,0.26c0-4.17,0-8.04,0-11.91
			C141.81,0,146.33,0,150.85,0z"/>
		<path class="st7" d="M0,49.15c3.66,0,7.32,0,11.65,0c0.47,4.29,0.09,8.65,0.26,13.56c-4.17,0-8.04,0-11.91,0
			C0,58.19,0,53.67,0,49.15z"/>
		<path class="st10" d="M200,100c-3.66,0-7.31,0-11.46,0c-0.88-3.7-0.06-7.53-0.61-11.86c4.33,0,8.2,0,12.07,0
			C200,92.09,200,96.05,200,100z"/>
		<path class="st10" d="M62.71,200c0-3.66,0-7.31,0-11.46c3.7-0.88,7.53-0.06,11.86-0.61c0,4.33,0,8.2,0,12.07
			C70.62,200,66.67,200,62.71,200z"/>
		<path class="st10" d="M162.71,74.58c0,4.23,0,8.46,0,13.27c-12.22,0.66-24.47,0.05-37.29,0.37c0-4.76,0-9.2,0-13.64
			c8.47,0,16.95,0,25.42,0C154.8,74.58,158.76,74.58,162.71,74.58z"/>
		<path class="st10" d="M74.58,74.58c0,4.23,0,8.46,0,13.27c-12.22,0.66-24.47,0.05-37.29,0.37c0-4.76,0-9.2,0-13.64
			c8.47,0,16.95,0,25.42,0C66.67,74.58,70.62,74.58,74.58,74.58z"/>
		<path class="st7" d="M23.73,62.71c0-4.4,0-8.8,0-13.43c4.58,0,8.71,0,13.37,0c0-3.98,0-7.75,0-11.99c4.37,0,8.21,0,12.05,0
			c0,8.47,0,16.95,0,25.42c-3.95,0-7.91,0-11.86,0C32.77,62.71,28.25,62.71,23.73,62.71z"/>
		<path class="st7" d="M62.71,37.29c3.84,0,7.69,0,11.76,0c0,4.04,0,7.6,0,11.7c4.54,0,8.88,0,13.67,0c0,4.92,0,9.32,0,13.73
			c-4.52,0-9.04,0-13.56,0c-3.95,0-7.91,0-11.86,0C62.71,54.24,62.71,45.76,62.71,37.29z"/>
		<path class="st7" d="M111.86,62.71c0-4.4,0-8.8,0-13.43c4.58,0,8.71,0,13.37,0c0-3.98,0-7.75,0-11.99c4.37,0,8.21,0,12.05,0
			c0,8.47,0,16.95,0,25.42c-3.95,0-7.91,0-11.86,0C120.9,62.71,116.38,62.71,111.86,62.71z"/>
		<path class="st7" d="M150.85,37.29c3.84,0,7.69,0,11.76,0c0,4.04,0,7.6,0,11.7c4.54,0,8.88,0,13.67,0c0,4.92,0,9.32,0,13.73
			c-4.52,0-9.04,0-13.56,0c-3.95,0-7.91,0-11.86,0C150.85,54.24,150.85,45.76,150.85,37.29z"/>
		<path class="st7" d="M62.71,111.86c3.84,0,7.69,0,11.75,0c0,4.6,0,8.72,0,13.38c4.53,0,8.87,0,13.67,0c0,4.36,0,8.2,0,12.05
			c-4.52,0-9.04,0-13.56,0c-3.95,0-7.91,0-11.86,0C62.71,128.81,62.71,120.34,62.71,111.86z"/>
		<path class="st7" d="M111.86,137.29c0-3.84,0-7.69,0-11.75c4.6,0,8.72,0,13.38,0c0-4.53,0-8.87,0-13.67c4.36,0,8.2,0,12.05,0
			c0,8.47,0,16.95,0,25.42c-3.95,0-7.91,0-11.86,0C120.9,137.29,116.38,137.29,111.86,137.29z"/>
		<path class="st7" d="M23.73,137.29c0-3.84,0-7.69,0-11.75c4.6,0,8.72,0,13.38,0c0-4.53,0-8.87,0-13.67c4.36,0,8.2,0,12.05,0
			c0,8.47,0,16.95,0,25.42c-3.95,0-7.91,0-11.86,0C32.77,137.29,28.25,137.29,23.73,137.29z"/>
		<path class="st7" d="M150.85,111.86c3.84,0,7.69,0,11.75,0c0,4.6,0,8.72,0,13.38c4.53,0,8.87,0,13.67,0c0,4.36,0,8.2,0,12.05
			c-4.52,0-9.04,0-13.56,0c-3.95,0-7.91,0-11.86,0C150.85,128.81,150.85,120.34,150.85,111.86z"/>
		<path class="st10" d="M74.58,150.85c0,3.66,0,7.33,0,11.6c-12.22,0.59-24.47,0.09-37.29,0.32c0-4.17,0-8.04,0-11.92
			C49.72,150.85,62.15,150.85,74.58,150.85z"/>
		<path class="st10" d="M162.71,150.85c0,3.66,0,7.33,0,11.6c-12.22,0.59-24.47,0.09-37.29,0.32c0-4.17,0-8.04,0-11.92
			c8.47,0,16.95,0,25.42,0C154.8,150.85,158.76,150.85,162.71,150.85z"/>
		<ellipse class="st11" cx="55.93" cy="50" rx="9.59" ry="17.98"/>
		<ellipse class="st11" cx="144.07" cy="50" rx="9.59" ry="17.98"/>
		<ellipse class="st11" cx="55.93" cy="124.58" rx="9.59" ry="17.98"/>
		<ellipse class="st11" cx="144.07" cy="124.58" rx="9.59" ry="17.98"/>
		<path class="st10" d="M74.58,137.29c4.52,0,9.04,0,13.56,0c0,4.38,0,8.77,0,13.56c-4.79,0-9.18,0-13.56,0
			C74.58,146.33,74.58,141.81,74.58,137.29z"/>
		<path class="st10" d="M111.86,137.29c4.52,0,9.04,0,13.56,0c0,4.52,0,9.04,0,13.56c-4.38,0-8.77,0-13.56,0
			C111.86,146.05,111.86,141.67,111.86,137.29z"/>
		<path class="st10" d="M23.73,137.29c4.52,0,9.04,0,13.56,0c0,4.52,0,9.04,0,13.56c-4.38,0-8.77,0-13.56,0
			C23.73,146.05,23.73,141.67,23.73,137.29z"/>
		<path class="st10" d="M162.71,137.29c4.52,0,9.04,0,13.56,0c0,4.38,0,8.77,0,13.56c-4.79,0-9.18,0-13.56,0
			C162.71,146.33,162.71,141.81,162.71,137.29z"/>
		<path class="st10" d="M74.58,62.71c4.52,0,9.04,0,13.56,0c0,3.82,0,7.65,0,11.86c-4.8,0-9.18,0-13.56,0
			C74.58,70.62,74.58,66.67,74.58,62.71z"/>
		<path class="st10" d="M111.86,62.71c4.52,0,9.04,0,13.56,0c0,3.95,0,7.91,0,11.86c-4.38,0-8.76,0-13.56,0
			C111.86,70.36,111.86,66.53,111.86,62.71z"/>
		<path class="st10" d="M23.73,62.71c4.52,0,9.04,0,13.56,0c0,3.95,0,7.91,0,11.86c-4.38,0-8.76,0-13.56,0
			C23.73,70.36,23.73,66.53,23.73,62.71z"/>
		<path class="st10" d="M162.71,62.71c4.52,0,9.04,0,13.56,0c0,3.82,0,7.65,0,11.86c-4.8,0-9.18,0-13.56,0
			C162.71,70.62,162.71,66.67,162.71,62.71z"/>
		<path class="st12" d="M125.42,74.58c0-3.95,0-7.91,0-11.86c3.95,0,7.91,0,11.86,0c4.52,0,9.04,0,13.56,0c0,3.95,0,7.91,0,11.86
			C142.37,74.58,133.9,74.58,125.42,74.58z"/>
		<circle class="st11" cx="156.78" cy="68.64" r="8.39"/>
		<path class="st12" d="M37.29,74.58c0-3.95,0-7.91,0-11.86c3.95,0,7.91,0,11.86,0c4.52,0,9.04,0,13.56,0c0,3.95,0,7.91,0,11.86
			C54.24,74.58,45.76,74.58,37.29,74.58z"/>
		<circle class="st11" cx="68.64" cy="68.64" r="8.39"/>
		<path class="st12" d="M37.29,150.85c0-4.52,0-9.04,0-13.56c3.95,0,7.91,0,11.86,0c4.52,0,9.04,0,13.56,0c3.95,0,7.91,0,11.86,0
			c0,4.52,0,9.04,0,13.56C62.15,150.85,49.72,150.85,37.29,150.85z"/>
		<path class="st12" d="M125.42,150.85c0-4.52,0-9.04,0-13.56c3.95,0,7.91,0,11.86,0c4.52,0,9.04,0,13.56,0c0,4.52,0,9.04,0,13.56
			C142.37,150.85,133.9,150.85,125.42,150.85z"/>
		<ellipse class="st11" cx="156.78" cy="144.07" rx="8.39" ry="9.59"/>
	</g>
</g>
<g id="_x34_" class="st0">
	<g class="st1">
		<path class="st2" d="M200,74.58c0,4.52,0,9.04,0,13.56c-3.88,0-7.75,0-12.09,0c0.54,4.34-0.28,8.16,0.61,11.86
			c4.16,0,7.82,0,11.48,0c0,3.95,0,7.91,0,11.86c-3.88,0-7.76,0-11.89,0c0,4.76-0.07,8.95,0.02,13.13c0.09,4.11-0.4,8.26,0.3,12.29
			c4.23,0,7.9,0,11.57,0c0,8.47,0,16.95,0,25.42c-3.87,0-7.73,0-12.11,0c0,8.8,0,17.08,0,25.31c-12.73,0.4-24.97-0.3-37.14,0.4
			c0,4.28,0,7.93,0,11.57c-4.53,0-9.06,0-13.59,0c0-3.88,0-7.75,0-11.86c-16.36,0-32.15,0-47.93,0.01c-0.25,0-0.51,0.13-0.73,0.26
			c-0.24,0.14-0.42,0.36-0.59,0.51c0,3.75,0,7.41,0,11.08c-4.53,0-9.06,0-13.59,0c0-3.87,0-7.74,0-12.07
			c-4.35,0.54-8.18-0.28-11.89,0.61c0,4.15,0,7.8,0,11.46c-8.49,0-16.98,0-25.47,0c0-3.84,0-7.68,0-11.86c-8.81,0-17.14,0-25.47,0
			c0-16.53,0-33.07-0.01-49.6c0-0.24-0.16-0.5-0.31-0.7c-0.16-0.21-0.4-0.36-0.61-0.54c-3.65,0-7.3,0-10.95,0
			c0-8.47,0-16.95,0-25.42c3.88,0,7.77,0,11.94,0c-0.23-12.82,0.27-25.07-0.32-37.29c-4.28,0-7.95,0-11.62,0c0-3.95,0-7.91,0-11.86
			c3.88,0,7.76,0,11.94,0c-0.18-4.91,0.21-9.27-0.27-13.56c-4.34,0-8.01,0-11.67,0c0-7.91,0-15.82,0-23.73c3.86,0,7.72,0,12.1,0
			c0-4.83,0-9.18,0-13.69c8.62,0,16.68,0,25.26,0c0-4.04,0-7.89,0-11.74c3.96,0,7.93,0,11.89,0c0,3.88,0,7.75,0,11.86
			c16.93,0,33.28,0,49.63-0.01c0.25,0,0.51-0.13,0.73-0.26c0.24-0.14,0.42-0.36,0.59-0.51c0-3.75,0-7.41,0-11.08
			c12.45,0,24.91,0,37.36,0c0,3.87,0,7.74,0,12.03c4.91-0.48,9.3,0.29,13.59-0.5c0-4.21,0-7.87,0-11.53c3.96,0,7.93,0,11.89,0
			c0,3.84,0,7.68,0,11.86c8.81,0,17.14,0,25.47,0c0,10.38-0.08,20.77,0.02,31.15c0.11,10.53-0.46,21.07,0.32,31.56
			C192.69,74.58,196.34,74.58,200,74.58z M176.22,137.29c0-3.82,0-7.65,0-11.86c-4.81,0-9.2,0-13.59,0c-3.96,0-7.93,0-11.89,0
			c0-8.38,0-16.76,0-25.47c-4.92,0.18-9.29-0.21-13.59,0.27c0,8.86,0,17.03,0,25.2c-3.96,0-7.93,0-11.89,0c-4.39,0-8.78,0-13.59,0
			c0,4.22,0,8.04,0,11.86c0,4.38,0,8.77,0,13.56c4.8,0,9.19,0,13.59,0c0,3.87,0,7.75,0,11.92c12.85-0.23,25.12,0.27,37.36-0.32
			c0-4.27,0-7.93,0-11.6c4.39,0,8.78,0,13.59,0C176.22,146.05,176.22,141.67,176.22,137.29z M176.22,62.71c0-4.38,0-8.77,0-13.56
			c-4.8,0-9.19,0-13.59,0c-3.96,0-7.93,0-11.89,0c0-7.82,0-15.64,0-23.78c-4.92,0.18-9.29-0.21-13.59,0.27c0,8.29,0,15.9,0,23.51
			c-3.96,0-7.93,0-11.89,0c-4.39,0-8.78,0-13.59,0c0,4.79,0,9.18,0,13.56c0,3.82,0,7.65,0,11.86c4.81,0,9.2,0,13.59,0
			c0,4.44,0,8.88,0,13.64c12.84-0.32,25.12,0.29,37.36-0.37c0-4.81,0-9.04,0-13.27c4.39,0,8.78,0,13.59,0
			C176.22,70.36,176.22,66.53,176.22,62.71z M87.91,137.29c0-3.82,0-7.65,0-11.86c-4.81,0-9.2,0-13.59,0c-3.96,0-7.93,0-11.89,0
			c0-8.38,0-16.76,0-25.47c-4.92,0.18-9.29-0.21-13.59,0.27c0,8.86,0,17.03,0,25.2c-3.96,0-7.93,0-11.89,0c-4.39,0-8.78,0-13.59,0
			c0,4.22,0,8.04,0,11.86c0,4.38,0,8.77,0,13.56c4.8,0,9.19,0,13.59,0c0,3.87,0,7.75,0,11.92c12.85-0.23,25.12,0.27,37.36-0.32
			c0-4.27,0-7.93,0-11.6c4.39,0,8.78,0,13.59,0C87.91,146.05,87.91,141.67,87.91,137.29z M23.38,62.71c0,3.82,0,7.65,0,11.86
			c4.81,0,9.2,0,13.59,0c0,4.44,0,8.88,0,13.61c12.84-0.22,25.12,0.25,37.36-0.3c0-4.85,0-9.08,0-13.31c4.39,0,8.78,0,13.59,0
			c0-4.22,0-8.04,0-11.86c0-4.38,0-8.77,0-13.56c-4.8,0-9.19,0-13.59,0c-3.96,0-7.93,0-11.89,0c0-7.82,0-15.64,0-23.78
			c-4.92,0.18-9.29-0.21-13.59,0.27c0,8.29,0,15.9,0,23.51c-3.96,0-7.93,0-11.89,0c-4.39,0-8.78,0-13.59,0
			C23.38,53.95,23.38,58.33,23.38,62.71z"/>
		<path class="st6" d="M150.75,200c0-3.64,0-7.29,0-11.57c12.17-0.7,24.41,0,37.14-0.4c0-8.23,0-16.51,0-25.31
			c4.38,0,8.24,0,12.11,0c0,12.3,0,24.6,0,37.29C183.29,200,167.02,200,150.75,200z"/>
		<path class="st6" d="M200,74.58c-3.66,0-7.31,0-11.55,0c-0.78-10.49-0.21-21.04-0.32-31.56c-0.11-10.38-0.02-20.76-0.02-31.15
			c3.96,0,7.93,0,11.89,0C200,32.77,200,53.67,200,74.58z"/>
		<path class="st5" d="M36.96,0c0,3.85,0,7.7,0,11.74c-8.58,0-16.64,0-25.26,0c0,4.51,0,8.85,0,13.69c-4.39,0-8.24,0-12.1,0
			c0-8.35,0-16.69,0-25.42C12.36,0,24.66,0,36.96,0z"/>
		<path class="st5" d="M99.8,0c0,3.67,0,7.33,0,11.08c-0.17,0.15-0.35,0.37-0.59,0.51c-0.22,0.13-0.49,0.26-0.73,0.26
			c-16.35,0.01-32.7,0.01-49.63,0.01c0-4.11,0-7.99,0-11.86C65.83,0,82.82,0,99.8,0z"/>
		<path class="st5" d="M-0.4,137.29c3.65,0,7.3,0,10.95,0c0.21,0.18,0.45,0.33,0.61,0.54c0.15,0.2,0.31,0.47,0.31,0.7
			c0.01,16.53,0.01,33.07,0.01,49.6c-3.96,0-7.93,0-11.89,0C-0.4,171.19-0.4,154.24-0.4,137.29z"/>
		<path class="st6" d="M87.91,200c0-3.66,0-7.33,0-11.08c0.16-0.15,0.35-0.37,0.59-0.51c0.22-0.13,0.49-0.26,0.73-0.26
			c15.78-0.01,31.57-0.01,47.93-0.01c0,4.11,0,7.99,0,11.86C120.75,200,104.33,200,87.91,200z"/>
		<path class="st5" d="M200,11.86c-3.96,0-7.93,0-11.89,0c-8.33,0-16.66,0-25.47,0c0-4.18,0-8.02,0-11.86C174.92,0,187.2,0,200,0
			C200,4.16,200,8.01,200,11.86z"/>
		<path class="st5" d="M-0.4,74.58c3.67,0,7.34,0,11.62,0c0.59,12.22,0.09,24.47,0.32,37.29c-4.18,0-8.06,0-11.94,0
			C-0.4,99.44-0.4,87.01-0.4,74.58z"/>
		<path class="st6" d="M-0.4,188.14c3.96,0,7.93,0,11.89,0c8.33,0,16.66,0,25.47,0c0,4.18,0,8.02,0,11.86c-12.28,0-24.57,0-37.36,0
			C-0.4,195.84-0.4,191.99-0.4,188.14z"/>
		<path class="st6" d="M200,137.29c-3.67,0-7.34,0-11.57,0c-0.7-4.03-0.22-8.18-0.3-12.29c-0.09-4.19-0.02-8.38-0.02-13.13
			c4.13,0,8.01,0,11.89,0C200,120.34,200,128.81,200,137.29z"/>
		<path class="st5" d="M-0.4,49.15c3.66,0,7.33,0,11.67,0c0.47,4.29,0.09,8.65,0.27,13.56c-4.18,0-8.06,0-11.94,0
			C-0.4,58.19-0.4,53.67-0.4,49.15z"/>
		<path class="st5" d="M150.75,0c0,3.66,0,7.32,0,11.53c-4.29,0.79-8.67,0.02-13.59,0.5c0-4.29,0-8.16,0-12.03
			C141.69,0,146.22,0,150.75,0z"/>
		<path class="st6" d="M200,100c-3.66,0-7.33,0-11.48,0c-0.88-3.7-0.06-7.53-0.61-11.86c4.34,0,8.21,0,12.09,0
			C200,92.09,200,96.05,200,100z"/>
		<path class="st6" d="M62.44,200c0-3.66,0-7.31,0-11.46c3.71-0.88,7.54-0.06,11.89-0.61c0,4.33,0,8.2,0,12.07
			C70.36,200,66.4,200,62.44,200z"/>
		<path class="st13" d="M36.96,49.15c3.96,0,7.93,0,11.89,0c4.53,0,9.06,0,13.59,0c0,8.47,0,16.95,0,25.42c-8.49,0-16.98,0-25.47,0
			c0-3.95,0-7.91,0-11.86C36.96,58.19,36.96,53.67,36.96,49.15z"/>
		<path class="st13" d="M125.27,125.42c3.96,0,7.93,0,11.89,0c4.53,0,9.06,0,13.59,0c0,8.47,0,16.95,0,25.42
			c-8.49,0-16.98,0-25.47,0c0-4.52,0-9.04,0-13.56C125.27,133.33,125.27,129.38,125.27,125.42z"/>
		<path class="st13" d="M125.27,49.15c3.96,0,7.93,0,11.89,0c4.53,0,9.06,0,13.59,0c0,8.47,0,16.95,0,25.42c-8.49,0-16.98,0-25.47,0
			c0-3.95,0-7.91,0-11.86C125.27,58.19,125.27,53.67,125.27,49.15z"/>
		<path class="st13" d="M36.96,125.42c3.96,0,7.93,0,11.89,0c4.53,0,9.06,0,13.59,0c0,8.47,0,16.95,0,25.42c-8.49,0-16.98,0-25.47,0
			c0-4.52,0-9.04,0-13.56C36.96,133.33,36.96,129.38,36.96,125.42z"/>
		<path class="st6" d="M125.27,74.58c8.49,0,16.98,0,25.47,0c3.96,0,7.93,0,11.89,0c0,4.23,0,8.46,0,13.27
			c-12.24,0.66-24.52,0.05-37.36,0.37C125.27,83.45,125.27,79.01,125.27,74.58z"/>
		<path class="st6" d="M36.96,74.58c8.49,0,16.98,0,25.47,0c3.96,0,7.93,0,11.89,0c0,4.23,0,8.46,0,13.31
			c-12.25,0.56-24.52,0.08-37.36,0.3C36.96,83.45,36.96,79.01,36.96,74.58z"/>
		<path class="st6" d="M125.27,150.85c8.49,0,16.98,0,25.47,0c3.96,0,7.93,0,11.89,0c0,3.66,0,7.33,0,11.6
			c-12.24,0.59-24.52,0.09-37.36,0.32C125.27,158.6,125.27,154.72,125.27,150.85z"/>
		<path class="st6" d="M36.96,150.85c8.49,0,16.98,0,25.47,0c3.96,0,7.93,0,11.89,0c0,3.66,0,7.33,0,11.6
			c-12.24,0.59-24.52,0.09-37.36,0.32C36.96,158.6,36.96,154.72,36.96,150.85z"/>
		<path class="st14" d="M150.75,125.42c-4.53,0-9.06,0-13.59,0c0-8.17,0-16.35,0-25.2c4.3-0.48,8.67-0.09,13.59-0.27
			C150.75,108.66,150.75,117.04,150.75,125.42z"/>
		<path class="st14" d="M62.44,125.42c-4.53,0-9.06,0-13.59,0c0-8.17,0-16.35,0-25.2c4.3-0.48,8.67-0.09,13.59-0.27
			C62.44,108.66,62.44,117.04,62.44,125.42z"/>
		<path class="st14" d="M62.44,49.15c-4.53,0-9.06,0-13.59,0c0-7.61,0-15.22,0-23.51c4.3-0.48,8.67-0.09,13.59-0.27
			C62.44,33.52,62.44,41.33,62.44,49.15z"/>
		<path class="st14" d="M150.75,49.15c-4.53,0-9.06,0-13.59,0c0-7.61,0-15.22,0-23.51c4.3-0.48,8.67-0.09,13.59-0.27
			C150.75,33.52,150.75,41.33,150.75,49.15z"/>
		<path class="st14" d="M162.64,150.85c-3.96,0-7.93,0-11.89,0c0-8.47,0-16.95,0-25.42c3.96,0,7.93,0,11.89,0c0,3.95,0,7.91,0,11.86
			C162.64,141.81,162.64,146.33,162.64,150.85z"/>
		<path class="st14" d="M74.33,150.85c-3.96,0-7.93,0-11.89,0c0-8.47,0-16.95,0-25.42c3.96,0,7.93,0,11.89,0c0,3.95,0,7.91,0,11.86
			C74.33,141.81,74.33,146.33,74.33,150.85z"/>
		<path class="st14" d="M74.33,74.58c-3.96,0-7.93,0-11.89,0c0-8.47,0-16.95,0-25.42c3.96,0,7.93,0,11.89,0c0,4.52,0,9.04,0,13.56
			C74.33,66.67,74.33,70.62,74.33,74.58z"/>
		<path class="st14" d="M162.64,74.58c-3.96,0-7.93,0-11.89,0c0-8.47,0-16.95,0-25.42c3.96,0,7.93,0,11.89,0c0,4.52,0,9.04,0,13.56
			C162.64,66.67,162.64,70.62,162.64,74.58z"/>
		<path class="st5" d="M125.27,49.15c0,4.52,0,9.04,0,13.56c-4.53,0-9.06,0-13.59,0c0-4.38,0-8.77,0-13.56
			C116.49,49.15,120.88,49.15,125.27,49.15z"/>
		<path class="st5" d="M74.33,62.71c0-4.52,0-9.04,0-13.56c4.39,0,8.78,0,13.59,0c0,4.79,0,9.18,0,13.56
			C83.38,62.71,78.85,62.71,74.33,62.71z"/>
		<path class="st5" d="M36.96,49.15c0,4.52,0,9.04,0,13.56c-4.53,0-9.06,0-13.59,0c0-4.38,0-8.77,0-13.56
			C28.18,49.15,32.57,49.15,36.96,49.15z"/>
		<path class="st6" d="M36.96,137.29c0,4.52,0,9.04,0,13.56c-4.39,0-8.78,0-13.59,0c0-4.79,0-9.18,0-13.56
			C27.91,137.29,32.43,137.29,36.96,137.29z"/>
		<path class="st6" d="M74.33,150.85c0-4.52,0-9.04,0-13.56c4.53,0,9.06,0,13.59,0c0,4.38,0,8.77,0,13.56
			C83.11,150.85,78.72,150.85,74.33,150.85z"/>
		<path class="st6" d="M125.27,137.29c0,4.52,0,9.04,0,13.56c-4.39,0-8.78,0-13.59,0c0-4.79,0-9.18,0-13.56
			C116.22,137.29,120.75,137.29,125.27,137.29z"/>
		<path class="st5" d="M162.64,62.71c0-4.52,0-9.04,0-13.56c4.39,0,8.78,0,13.59,0c0,4.79,0,9.18,0,13.56
			C171.69,62.71,167.17,62.71,162.64,62.71z"/>
		<path class="st6" d="M162.64,150.85c0-4.52,0-9.04,0-13.56c4.53,0,9.06,0,13.59,0c0,4.38,0,8.77,0,13.56
			C171.42,150.85,167.03,150.85,162.64,150.85z"/>
		<path class="st6" d="M162.64,62.71c4.53,0,9.06,0,13.59,0c0,3.82,0,7.65,0,11.86c-4.81,0-9.2,0-13.59,0
			C162.64,70.62,162.64,66.67,162.64,62.71z"/>
		<path class="st5" d="M36.96,137.29c-4.53,0-9.06,0-13.59,0c0-3.82,0-7.65,0-11.86c4.81,0,9.2,0,13.59,0
			C36.96,129.38,36.96,133.33,36.96,137.29z"/>
		<path class="st6" d="M23.38,62.71c4.53,0,9.06,0,13.59,0c0,3.95,0,7.91,0,11.86c-4.39,0-8.78,0-13.59,0
			C23.38,70.36,23.38,66.53,23.38,62.71z"/>
		<path class="st5" d="M87.91,137.29c-4.53,0-9.06,0-13.59,0c0-3.95,0-7.91,0-11.86c4.39,0,8.78,0,13.59,0
			C87.91,129.64,87.91,133.47,87.91,137.29z"/>
		<path class="st5" d="M125.27,137.29c-4.53,0-9.06,0-13.59,0c0-3.82,0-7.65,0-11.86c4.81,0,9.2,0,13.59,0
			C125.27,129.38,125.27,133.33,125.27,137.29z"/>
		<path class="st5" d="M176.22,137.29c-4.53,0-9.06,0-13.59,0c0-3.95,0-7.91,0-11.86c4.39,0,8.78,0,13.59,0
			C176.22,129.64,176.22,133.47,176.22,137.29z"/>
		<path class="st6" d="M111.69,62.71c4.53,0,9.06,0,13.59,0c0,3.95,0,7.91,0,11.86c-4.39,0-8.78,0-13.59,0
			C111.69,70.36,111.69,66.53,111.69,62.71z"/>
		<path class="st6" d="M74.33,62.71c4.53,0,9.06,0,13.59,0c0,3.82,0,7.65,0,11.86c-4.81,0-9.2,0-13.59,0
			C74.33,70.62,74.33,66.67,74.33,62.71z"/>
	</g>
</g>
</svg>
